<?xml version="1.0" encoding="utf-8"?>
<!-- Generator: Adobe Illustrator 24.2.1, SVG Export Plug-In . SVG Version: 6.00 Build 0)  -->
<svg version="1.1" id="Ebene_1" xmlns="http://www.w3.org/2000/svg" xmlns:xlink="http://www.w3.org/1999/xlink" x="0px" y="0px"
	 viewBox="0 0 241 241" style="enable-background:new 0 0 241 241;" xml:space="preserve">
<style type="text/css">
	.st0{fill:#f86f41;}
</style>

<path id="time-7" class="st0" d="M180.55,130.42l12.09,0.97c-0.8,5.16-2.12,10.14-3.95,14.88l-10.88-5.48
	C179.02,137.47,179.94,134,180.55,130.42z M165.14,177.77l-8.55-8.73c-2.94,2.16-6.09,4.04-9.4,5.64l4.05,11.49
	C156.2,183.89,160.86,181.06,165.14,177.77z M172.56,151.7c-2.03,3.31-4.35,6.4-6.95,9.25l8.5,8.67c3.53-3.79,6.65-7.96,9.31-12.45
	L172.56,151.7z M48.35,120.25c0,40.09,32.52,72.59,72.62,72.59c6.54,0,12.85-0.94,18.87-2.56l-4.02-11.46
	c-4.76,1.21-9.72,1.92-14.85,1.92c-33.37,0-60.51-27.13-60.51-60.49c0-33.36,27.15-60.49,60.51-60.49c13.52,0,25.97,4.5,36.05,12.03
	l-12.4,12.39l42.43,8.19l-8.2-42.42l-13.21,13.21c-12.32-9.67-27.8-15.5-44.67-15.5C80.87,47.65,48.35,80.15,48.35,120.25z
	 M192.17,105.97h-12.56c0.99,4,1.58,8.13,1.74,12.38l12.19,0.97C193.48,114.77,193.02,110.3,192.17,105.97z"/>
<rect x="99.62" y="84.68" transform="matrix(0.6388 -0.7694 0.7694 0.6388 -47.1314 120.3514)" class="st0" width="10" height="51.38"/>
<rect x="114.61" y="105.9" transform="matrix(0.6413 -0.7673 0.7673 0.6413 -38.0554 140.4114)" class="st0" width="33.04" height="10"/>
<rect x="117.38" y="68.44" class="st0" width="6" height="10"/>
<rect x="69.89" y="117.78" class="st0" width="10" height="6"/>
<circle class="st0" cx="120.38" cy="122.62" r="8.54"/>
</svg>
