<svg id="Ebene_1" data-name="Ebene 1" xmlns="http://www.w3.org/2000/svg" viewBox="0 0 240 240"><defs><style>.cls-1{fill:#f86f41;}</style></defs><path class="cls-1" d="M67.77,153.16H177.7a11.65,11.65,0,0,0,11.64-11.63V82.71A11.65,11.65,0,0,0,177.7,71.07H142.33c-2.63-10-10.46-17.24-19.7-17.24C113,53.83,105,61,102.54,71.07H67.77A11.65,11.65,0,0,0,56.13,82.71v58.82A11.65,11.65,0,0,0,67.77,153.16Zm75.49-74.33H177.7a3.88,3.88,0,0,1,3.88,3.88v58.82a3.89,3.89,0,0,1-3.88,3.88h-6V125.15c0-.63,0-15.46-16-22.07L138.59,94.9C140.45,90.66,143.12,83.73,143.26,78.83ZM114.7,94.3a31.45,31.45,0,0,1-5.46-16.55c0-9.2,5.88-16.42,13.39-16.42,7.25,0,13.14,7.67,13.14,17.09,0,4-3.43,12.44-5.59,16.81A3.53,3.53,0,0,0,130,98a3.49,3.49,0,0,0,1.82,2l20.75,9.91.17.07c11.24,4.6,11.47,14.7,11.47,15.13v20.31H151.77V132.76a2.21,2.21,0,0,0-4.42,0v12.65H96.78V132.76a2.21,2.21,0,0,0-4.42,0v12.65H80.53v-20.2c.07-1.11,1-10.71,12.07-15.23l.22-.1,20.61-10.35a3.54,3.54,0,0,0,1.27-5.23ZM63.89,82.71a3.88,3.88,0,0,1,3.88-3.88h34a38.94,38.94,0,0,0,4.42,15.93L89.61,103.1C73.76,109.66,73.05,124.33,73,125v20.45H67.77a3.89,3.89,0,0,1-3.88-3.88Z"/><path class="cls-1" d="M201.72,168.64H42a3.88,3.88,0,1,0,0,7.76H201.72a3.88,3.88,0,0,0,0-7.76Z"/></svg>