<?xml version="1.0" encoding="utf-8"?>
<!-- Generator: Adobe Illustrator 24.1.2, SVG Export Plug-In . SVG Version: 6.00 Build 0)  -->
<svg version="1.1" id="Ebene_1" xmlns="http://www.w3.org/2000/svg" xmlns:xlink="http://www.w3.org/1999/xlink" x="0px" y="0px"
	 viewBox="0 0 241 241" style="enable-background:new 0 0 241 241;" xml:space="preserve">
<style type="text/css">
	.st0{display:none;fill:#FFFFFF;}
	.st1{fill:#f86f41;}
</style>
<path id="White" class="st0" d="M120.5,0.78c-66.2,0-120,53.8-120,120s53.8,120,120,120s120-53.8,120-120S186.7,0.78,120.5,0.78z
	 M120.5,233.78c-62.3,0-113-50.7-113-113s50.7-113,113-113s113,50.7,113,113S182.8,233.78,120.5,233.78z"/>

<g>
	<path class="st1" d="M178.85,72.05c-1.81,0-3.29,1.47-3.29,3.28c0,1.81,1.47,3.28,3.29,3.28c1.81,0,3.28-1.47,3.28-3.28
		C182.13,73.52,180.66,72.05,178.85,72.05 M178.85,81.93c-3.64,0-6.6-2.96-6.6-6.6c0-3.63,2.96-6.59,6.6-6.59s6.59,2.96,6.59,6.59
		C185.44,78.97,182.49,81.93,178.85,81.93"/>
</g>
<rect x="165.17" y="73.67" transform="matrix(0.7868 -0.6173 0.6173 0.7868 -10.9228 119.0419)" class="st1" width="3.33" height="3.33"/>
<polygon class="st1" points="93.4,104.67 96.64,104.17 97.17,107.45 93.9,107.95 "/>
<path class="st1" d="M67.46,118.38l2.32-2.35l2.35,2.32l-2.32,2.35L67.46,118.38z M62.09,123.82l2.35-2.35l2.35,2.32l-2.32,2.35
	L62.09,123.82z M56.75,129.25l2.32-2.35l2.39,2.32l-2.35,2.35L56.75,129.25z M51.42,134.68l2.32-2.35l2.35,2.32L53.77,137
	L51.42,134.68z M46.05,140.12l2.35-2.35l2.35,2.32l-2.32,2.35L46.05,140.12z M40.72,145.55l2.32-2.35l2.35,2.32l-2.32,2.35
	L40.72,145.55z"/>
<g>
	<path class="st1" d="M40.74,155.14c-1.81,0-3.29,1.47-3.29,3.28c0,1.81,1.47,3.28,3.29,3.28c1.81,0,3.28-1.47,3.28-3.28
		C44.03,156.62,42.55,155.14,40.74,155.14 M40.74,165.02c-3.64,0-6.6-2.96-6.6-6.6c0-3.63,2.96-6.59,6.6-6.59
		c3.64,0,6.59,2.96,6.59,6.59C47.34,162.06,44.38,165.02,40.74,165.02"/>
	<path class="st1" d="M83.83,111.5c-1.81,0-3.29,1.47-3.29,3.28c0,1.81,1.47,3.28,3.29,3.28c1.81,0,3.28-1.47,3.28-3.28
		C87.11,112.97,85.63,111.5,83.83,111.5 M83.83,121.37c-3.64,0-6.6-2.96-6.6-6.6c0-3.63,2.96-6.59,6.6-6.59
		c3.64,0,6.59,2.96,6.59,6.59C90.42,118.42,87.46,121.37,83.83,121.37"/>
	<path class="st1" d="M139.37,100.1c-3.6,0-6.52,2.93-6.52,6.53c0,3.6,2.92,6.52,6.52,6.52c3.6,0,6.53-2.93,6.53-6.52
		C145.9,103.03,142.97,100.1,139.37,100.1 M139.37,116.47c-5.42,0-9.84-4.41-9.84-9.84s4.42-9.84,9.84-9.84
		c5.42,0,9.84,4.41,9.84,9.84S144.8,116.47,139.37,116.47"/>
</g>
<rect x="55.32" y="154.23" class="st1" width="3.31" height="11.57"/>
<rect x="64.38" y="145.12" class="st1" width="3.31" height="20.67"/>
<rect x="73.44" y="136.01" class="st1" width="3.31" height="29.78"/>
<rect x="82.49" y="126.91" class="st1" width="3.31" height="38.89"/>
<rect x="91.55" y="122.84" class="st1" width="3.31" height="42.96"/>
<rect x="100.61" y="127.53" class="st1" width="3.31" height="38.27"/>
<rect x="109.66" y="138.41" class="st1" width="3.31" height="27.39"/>
<rect x="118.72" y="145.12" class="st1" width="3.31" height="20.67"/>
<rect x="118.72" y="114.78" class="st1" width="3.31" height="3.38"/>
<rect x="127.78" y="148.79" class="st1" width="3.31" height="17.01"/>
<rect x="127.78" y="118.16" class="st1" width="3.31" height="7.11"/>
<rect x="136.84" y="149.26" class="st1" width="3.31" height="16.53"/>
<rect x="136.84" y="121.71" class="st1" width="3.31" height="6.29"/>
<rect x="145.9" y="149.26" class="st1" width="3.31" height="16.53"/>
<rect x="145.9" y="119.03" class="st1" width="3.31" height="6.24"/>
<rect x="154.95" y="145.12" class="st1" width="3.31" height="20.67"/>
<rect x="154.95" y="101.21" class="st1" width="3.31" height="16.95"/>
<rect x="164.01" y="152.1" class="st1" width="3.31" height="13.7"/>
<rect x="173.07" y="160.01" class="st1" width="3.31" height="5.78"/>
<rect x="182.13" y="85.42" class="st1" width="3.31" height="45.45"/>
<rect x="141.77" y="88.43" transform="matrix(0.7832 -0.6217 0.6217 0.7832 -21.2712 119.1623)" class="st1" width="36.97" height="3.31"/>
<rect x="88.47" y="109.28" transform="matrix(0.9894 -0.1449 0.1449 0.9894 -14.9173 17.107)" class="st1" width="42.94" height="3.31"/>
<rect x="36.5" y="134.89" transform="matrix(0.6988 -0.7153 0.7153 0.6988 -78.9262 85.6354)" class="st1" width="51.46" height="3.31"/>
<path class="st1" d="M163.23,134.49l2.57,2.57l4.24-4.24l-2.57-2.57L163.23,134.49z M165.8,141.75l-7.26-7.26l8.92-8.92l7.26,7.26
	L165.8,141.75z"/>
<path class="st1" d="M195.36,166.62l4.24-4.24l2.57,2.57l-4.24,4.24L195.36,166.62z M190.68,166.62l7.25,7.26l8.92-8.92l-7.26-7.25
	L190.68,166.62z"/>
<g>
	<path class="st1" d="M139.44,80.33c-6.98,0-13.54,2.72-18.48,7.66c-10.19,10.19-10.19,26.77,0,36.96
		c10.2,10.19,26.77,10.19,36.96,0c10.19-10.19,10.19-26.77,0-36.96C152.98,83.05,146.42,80.33,139.44,80.33 M139.44,135.89
		c-7.54,0-15.08-2.87-20.82-8.61c-11.48-11.48-11.48-30.16,0-41.64c5.56-5.56,12.96-8.62,20.82-8.62c7.86,0,15.26,3.06,20.82,8.62
		c11.48,11.48,11.48,30.16,0,41.64C154.52,133.03,146.98,135.89,139.44,135.89 M139.44,73.24c-8.87,0-17.21,3.46-23.49,9.73
		c-6.28,6.27-9.73,14.62-9.73,23.49s3.46,17.21,9.73,23.49c6.27,6.27,14.61,9.73,23.49,9.73c8.87,0,17.22-3.46,23.49-9.73
		c6.28-6.28,9.73-14.62,9.73-23.49s-3.46-17.22-9.73-23.49C156.66,76.7,148.31,73.24,139.44,73.24 M139.44,143
		c-9.76,0-18.93-3.8-25.83-10.7c-6.9-6.9-10.7-16.07-10.7-25.83s3.8-18.93,10.7-25.83c6.9-6.9,16.07-10.7,25.83-10.7
		c9.76,0,18.93,3.8,25.83,10.7c6.9,6.9,10.7,16.07,10.7,25.83s-3.8,18.93-10.7,25.83C158.37,139.2,149.19,143,139.44,143"/>
</g>
<path class="st1" d="M166.33,141.21l7.85-7.85l24.88,24.87l-7.86,7.86L166.33,141.21z M161.65,141.21l29.56,29.56l12.54-12.54
	l-29.56-29.56L161.65,141.21z"/>
<rect x="183.44" y="156.01" transform="matrix(0.7071 -0.7071 0.7071 0.7071 -55.6512 180.9891)" class="st1" width="14.42" height="3.31"/>
<rect x="167.54" y="140.12" transform="matrix(0.7071 -0.7071 0.7071 0.7071 -49.0659 165.0931)" class="st1" width="14.42" height="3.31"/>
<rect x="39" y="81.34" class="st1" width="3.6" height="3.31"/>
<rect x="65.55" y="81.34" class="st1" width="3.6" height="3.31"/>
<polygon class="st1" points="48.83,91.86 48.83,88.54 56.02,88.54 56.02,85.69 48.82,82.45 48.82,74.14 59.33,74.14 59.33,77.45 
	52.14,77.45 52.14,80.31 59.34,83.54 59.34,91.86 "/>
<rect x="52.46" y="90.2" class="st1" width="3.31" height="5.4"/>
<rect x="52.46" y="70.39" class="st1" width="3.31" height="5.4"/>
<rect x="88.78" y="81.34" class="st1" width="3.31" height="3.31"/>
<rect x="95.4" y="81.34" class="st1" width="3.31" height="3.31"/>
<rect x="39.08" y="119.98" class="st1" width="3.31" height="3.31"/>
<rect x="39.08" y="113.35" class="st1" width="3.31" height="3.31"/>
<rect x="39.08" y="106.73" class="st1" width="3.31" height="3.31"/>
<rect x="39.08" y="100.1" class="st1" width="3.31" height="3.31"/>
</svg>
