<?xml version="1.0" encoding="utf-8"?>
<!-- Generator: Adobe Illustrator 25.3.0, SVG Export Plug-In . SVG Version: 6.00 Build 0)  -->
<svg version="1.1" id="Ebene_1" xmlns="http://www.w3.org/2000/svg" xmlns:xlink="http://www.w3.org/1999/xlink" x="0px" y="0px"
	 viewBox="0 0 240 240" style="enable-background:new 0 0 240 240;" xml:space="preserve">
<style type="text/css">
	.st0{fill:#f86f41;}
</style>

<g>
<path class="st0" d="M145.9,172.3h-53c-5.7,0-10.3-5.2-10.3-11.6c0,0,0-2.6,0-3.2v-0.1v-0.1c0.1-2.6,0.9-7.8,2.8-10.8
		c4.1-6.3,9.1-10.3,15.8-12.6c1.3-0.6,6.7-2.7,18.2-2.7s16.9,2,18.2,2.7c6.7,2.2,11.7,6.2,15.8,12.6c1.9,3,2.7,8.2,2.8,10.8v0.1v0.1
		c0,0.6,0,3.2,0,3.2C156.2,167.1,151.6,172.3,145.9,172.3z M89.6,157.4c0,0.8,0,3.3,0,3.3c0,2.5,1.5,4.6,3.3,4.6h53
		c1.8,0,3.3-2.1,3.3-4.6c0,0,0-2.5,0-3.3c-0.1-2.2-0.8-5.7-1.7-7l0,0c-3.3-5-7-8.1-12.3-9.8l-0.5-0.2l0,0c0,0-4.4-2-15.3-2
		c-11,0-15.3,2-15.4,2l-0.4,0.2c-5.3,1.8-9.1,4.8-12.3,9.8C90.4,151.7,89.6,155.2,89.6,157.4z"/>
<path class="st0" d="M119.4,133.2c-14.5,0-22.2-16.9-22.2-29.1c0-12.3,9.9-22.3,22.2-22.3c12.2,0,22.2,10,22.2,22.3
		C141.5,116,133.7,133.2,119.4,133.2z M119.4,88.8c-8.4,0-15.2,6.9-15.2,15.3c0,9.2,5.8,22.1,15.2,22.1s15.2-12.9,15.2-22.1
		C134.5,95.6,127.7,88.8,119.4,88.8z"/>
<path class="st0" d="M81.7,154.1H46.8c-5.5,0-9.9-5-9.9-11.1v-1.9c0-0.4,0-0.8,0-1.1v-0.1v-0.1c0.1-2.5,0.8-7.3,2.7-10.2
		c3.8-5.9,8.5-9.7,14.9-11.8c1.3-0.6,6.4-2.5,17.1-2.5s15.8,1.9,17.1,2.5c5.3,1.8,9.4,4.7,12.9,9.1l3.1,3.9l-4.7,1.6
		c-6.8,2.3-11.7,6.2-15.8,12.7c-0.7,1.1-1.5,3.4-1.9,6L81.7,154.1z M43.9,140c0,0.4,0,0.8,0,1.3v1.8c0,2.2,1.3,4.1,2.9,4.1h29.1
		c0.5-2,1.2-4.1,2.3-5.7c4-6.1,8.6-10.5,14.5-13.4c-1.9-1.5-4-2.6-6.5-3.5l-0.5-0.2l0,0c0,0-4.1-1.9-14.2-1.9
		c-10.2,0-14.2,1.9-14.3,1.9l-0.4,0.2c-4.9,1.6-8.4,4.4-11.4,9C44.6,134.7,43.9,138,43.9,140z"/>
<path class="st0" d="M71.5,117.6c-13.7,0-21-15.9-21-27.5S59.9,69,71.5,69c11.5,0,20.9,9.5,20.9,21.1
		C92.5,101.4,85,117.6,71.5,117.6z M71.5,76.1c-7.7,0-14,6.3-14,14.1c0,8.5,5.3,20.5,14,20.5c8.5,0,13.9-12.1,13.9-20.5
		C85.5,82.4,79.2,76.1,71.5,76.1z"/>
<path class="st0" d="M192.1,154.1h-34.9l-0.5-2.9c-0.4-2.6-1.2-4.9-1.9-6c-4.2-6.5-9.1-10.4-15.9-12.7l-4.7-1.6l3.1-3.9
		c3.4-4.4,7.7-7.4,12.9-9.1c1.3-0.6,6.4-2.5,17.1-2.5c10.7,0,15.8,1.9,17.1,2.5c6.3,2.1,11,5.9,14.9,11.8c1.8,2.8,2.6,7.6,2.7,10.2
		v0.1v0.1c0,0.3,0,0.7,0,1.1v1.9C202,149.1,197.5,154.1,192.1,154.1z M162.9,147.1H192c1.6,0,2.9-1.9,2.9-4.1v-1.8
		c0-0.4,0-0.9,0-1.3c-0.1-2-0.7-5.2-1.5-6.4c-3-4.6-6.5-7.4-11.4-9.1l-0.5-0.2l0,0c0,0-4.1-1.9-14.2-1.9c-10.2,0-14.2,1.9-14.3,1.9
		l-0.5,0.2c-2.5,0.8-4.6,1.9-6.5,3.5c5.9,3,10.6,7.3,14.5,13.5C161.7,143,162.4,145.1,162.9,147.1z"/>
<path class="st0" d="M167.3,117.6c-13.5,0-20.9-16.2-20.9-27.5c0-11.6,9.4-21.1,20.9-21.1c11.6,0,21,9.5,21,21.1
		S181,117.6,167.3,117.6z M167.3,76.1c-7.7,0-13.9,6.3-13.9,14.1c0,8.3,5.4,20.5,13.9,20.5c8.6,0,14-11.9,14-20.5
		C181.3,82.4,175,76.1,167.3,76.1z"/>
</g>
</svg>
