<?xml version="1.0" encoding="utf-8"?>
<!-- Generator: Adobe Illustrator 24.1.2, SVG Export Plug-In . SVG Version: 6.00 Build 0)  -->
<svg version="1.1" id="Ebene_1" xmlns="http://www.w3.org/2000/svg" xmlns:xlink="http://www.w3.org/1999/xlink" x="0px" y="0px"
	 viewBox="0 0 241 241" style="enable-background:new 0 0 241 241;" xml:space="preserve">
<style type="text/css">
	.st0{display:none;fill:#FFFFFF;}
	.st1{fill:#f86f41;}
</style>
<path id="White" class="st0" d="M120.5,0.78c-66.2,0-120,53.8-120,120s53.8,120,120,120s120-53.8,120-120S186.7,0.78,120.5,0.78z
	 M120.5,233.78c-62.3,0-113-50.7-113-113s50.7-113,113-113s113,50.7,113,113S182.8,233.78,120.5,233.78z"/>

<g>
	<path class="st1" d="M114.74,91.15c0,1.8,1.02,2.69,3.36,3.53v-7.15C115.8,87.97,114.74,89.2,114.74,91.15z"/>
	<path class="st1" d="M122.05,101.87v7.72c3.74-0.53,3.49-1.94,3.49-3.79C125.53,103.46,122.05,102.63,122.05,101.87z"/>
	<path class="st1" d="M174.43,66.31H65.92c-2.07,0-3.74,1.67-3.74,3.74v59.86c0,2.07,1.67,3.74,3.74,3.74h108.5
		c2.07,0,3.74-1.67,3.74-3.74V70.05C178.17,67.98,176.49,66.31,174.43,66.31z M122.05,114.28v2.6c0,1.46-1.34,1.8-2.36,1.8h-0.09
		c-1.06,0-1.29-0.34-1.29-1.8v-2.51c-3.74-0.13-3.9-0.49-5.58-1.32c-1.46-0.71-1.91-1.59-1.91-3.23v-0.7c0-1.42,0.31-2.29,1.69-2.29
		c1.94,0,2.05,2.29,5.79,2.86v-8.96c-7.48-1.68-8.75-3.89-8.75-8.92c0-5.34,5.01-8.29,8.75-8.87v-0.93c0-1.45,0.68-0.73,1.74-0.73
		h0.09c1.02,0,1.92-0.72,1.92,0.73v0.88c0,0.09,3.5,0.39,4.87,0.88c1.59,0.57,2.62,1.59,2.62,3.27v0.61c0,1.33-1.02,2.03-2.13,2.03
		c-1.54,0-1.61-1.67-5.35-2.21v8.3c7.48,1.72,9.19,3.75,9.19,9.23C131.23,110.39,129.53,113.7,122.05,114.28z M69.67,73.79h37.11
		c-8.91,4.93-15.02,14.81-15.02,26.19c0,11.38,6.11,21.26,15.01,26.19h-37.1V73.79z M170.68,126.17h-38.34
		c8.9-4.93,15.01-14.81,15.01-26.19c0-11.38-6.11-21.26-15.02-26.19h38.35V126.17z"/>
	<path class="st1" d="M147.31,158.68l-2.81,2.81v-20.35c0-2.07-1.67-3.74-3.74-3.74c-2.07,0-3.74,1.67-3.74,3.74v20.26l-2.71-2.71
		c-1.46-1.46-3.83-1.46-5.29,0c-1.46,1.46-1.46,3.83,0,5.29l9.15,9.14c0.73,0.73,1.69,1.1,2.65,1.1c0.96,0,1.91-0.37,2.65-1.09
		l9.15-9.14c1.46-1.46,1.46-3.83,0-5.29C151.14,157.22,148.77,157.22,147.31,158.68z"/>
	<path class="st1" d="M106.15,158.68l-2.81,2.81v-20.35c0-2.07-1.67-3.74-3.74-3.74c-2.07,0-3.74,1.67-3.74,3.74v20.26l-2.71-2.71
		c-1.46-1.46-3.83-1.46-5.29,0c-1.46,1.46-1.46,3.83,0,5.29l9.15,9.14c0.73,0.73,1.69,1.1,2.65,1.1c0.96,0,1.91-0.37,2.65-1.09
		l9.15-9.14c1.46-1.46,1.46-3.83,0-5.29C109.98,157.22,107.61,157.22,106.15,158.68z"/>
</g>
</svg>
