<?xml version="1.0" encoding="utf-8"?>
<!-- Generator: Adobe Illustrator 24.1.2, SVG Export Plug-In . SVG Version: 6.00 Build 0)  -->
<svg version="1.1" id="Layer_1" xmlns:serif="http://www.serif.com/"
	 xmlns="http://www.w3.org/2000/svg" xmlns:xlink="http://www.w3.org/1999/xlink" x="0px" y="0px" viewBox="0 0 500 500"
	 style="enable-background:new 0 0 500 500;" xml:space="preserve">
<style type="text/css">
	.st0{fill:none;stroke:#f86f41;stroke-width:13.8889;stroke-linecap:round;stroke-miterlimit:69.4444;}
	.st1{fill:none;stroke:#f86f41;stroke-width:13.8889;stroke-miterlimit:69.4444;}
</style>
<g transform="matrix(1,0,0,1,-360,-1980)">
	<g transform="matrix(1,0,0,1,-4.67055,445.864)">
		<g id="Security-Shield-Check" transform="matrix(1,0,0,1,364.671,1534.14)" serif:id="Security Shield Check">
			<g>
				<g transform="matrix(1,0,0,1,56.9619,52.8637)">
					<path class="st1" d="M338.6,107.8l-0.2-3.1h-3.2c-7.5,0.3-14.4-3.8-17.7-10.5c-2.3-4.6-3.5-9.5-3.6-14.6v-2.7l-16.5-4L193,47.6
						L88.7,73l-16.5,4v2.7c0.2,5.3-1.1,10.6-3.8,15.2c-6,9.5-16.9,9.8-17.5,9.8h-3.1l-0.2,3.1c0,0.5-3.2,46.6,12.8,102
						c2.2,7.7,4.9,15.7,8.1,24.1c6.1,16.1,13.7,31.5,22.7,46.2c16.1,26.4,36.8,49.6,61.2,68.5c12.3,9.5,25.4,17.9,39.2,25l1.6,0.8
						l1.6-0.8c13.8-7.2,26.9-15.5,39.2-25c24.4-18.9,45.2-42.1,61.2-68.5c8.9-14.5,16.4-29.8,22.5-45.7c3.4-8.5,6-16.8,8.3-24.6
						C341.8,154.4,338.6,108.3,338.6,107.8z"/>
				</g>
				<g transform="matrix(1,0,0,1,51.4878,38.3094)">
					<path class="st1" d="M306.1,223.5c-0.5,1.6-0.9,3.2-1.4,4.9c-6.1,19.9-14.9,38.8-26,56.4c-14.4,22.8-33.1,42.6-55,58.4
						c-8,5.7-16.4,10.9-25.1,15.5c-8.7-4.6-17.1-9.8-25.1-15.5c-21.9-15.7-40.6-35.6-55-58.4c-11.2-17.8-20-36.9-26.1-57
						c-0.4-1.5-0.9-2.9-1.3-4.3c-7.8-26.9-11.5-54.8-10.9-82.7c4.4-0.7,8.6-2.5,12.2-5.2c4.5-3.6,8.4-9.5,9-19.4l32.8-8l64.5-15.6
						l64.5,15.6l32.8,7.9c0.5,6,2.9,14.2,8.8,19.5c3.4,3,7.8,4.9,12.4,5.3C317.5,168.8,313.8,196.6,306.1,223.5L306.1,223.5z"/>
				</g>
				<g transform="matrix(1,0,0,1,43.5,41.6183)">
					<path class="st0" d="M258.6,170.1l-60.5,73.9c-2.7,3.4-7.4,3.4-10.1,0.7l-33.6-33.6"/>
				</g>
			</g>
		</g>
	</g>
</g>
</svg>
