<?xml version="1.0" encoding="utf-8"?>
<!-- Generator: Adobe Illustrator 24.2.3, SVG Export Plug-In . SVG Version: 6.00 Build 0)  -->
<svg version="1.1" id="Ebene_1" xmlns="http://www.w3.org/2000/svg" xmlns:xlink="http://www.w3.org/1999/xlink" x="0px" y="0px"
	 viewBox="0 0 241 241" style="enable-background:new 0 0 241 241;" xml:space="preserve">
<style type="text/css">
	.st0{display:none;fill:#FFFFFF;}
	.st1{fill:#f86f41;}
</style>
<path id="White" class="st0" d="M120.5,0.78c-66.2,0-120,53.8-120,120s53.8,120,120,120s120-53.8,120-120S186.7,0.78,120.5,0.78z
	 M120.5,233.78c-62.3,0-113-50.7-113-113s50.7-113,113-113s113,50.7,113,113S182.8,233.78,120.5,233.78z"/>

<g id="icon" transform="translate(-2.4722222222222285 -2.4722222222222285) scale(4.94 4.94)">
	<g>
		<path class="st1" d="M25,35.92c-0.83,0-1.5-0.67-1.5-1.5s0.67-1.5,1.5-1.5c0.83,0,1.5,0.67,1.5,1.5S25.82,35.92,25,35.92z
			 M25,33.57c-0.47,0-0.85,0.38-0.85,0.85s0.38,0.85,0.85,0.85c0.47,0,0.85-0.38,0.85-0.85S25.47,33.57,25,33.57z"/>
		<path class="st1" d="M25,36.02c-0.88,0-1.6-0.72-1.6-1.6c0-0.88,0.72-1.6,1.6-1.6c0.88,0,1.6,0.72,1.6,1.6
			C26.6,35.3,25.88,36.02,25,36.02z M25,33.02c-0.77,0-1.4,0.63-1.4,1.4c0,0.77,0.63,1.4,1.4,1.4c0.77,0,1.4-0.63,1.4-1.4
			C26.39,33.65,25.77,33.02,25,33.02z M25,35.37c-0.52,0-0.95-0.43-0.95-0.95s0.43-0.95,0.95-0.95c0.52,0,0.95,0.43,0.95,0.95
			S25.52,35.37,25,35.37z M25,33.67c-0.41,0-0.75,0.34-0.75,0.75c0,0.41,0.34,0.75,0.75,0.75c0.41,0,0.75-0.34,0.75-0.75
			C25.75,34.01,25.41,33.67,25,33.67z"/>
	</g>
	<g>
		<path class="st1" d="M24.03,19.24c-0.05,0-0.1-0.01-0.15-0.04c-0.52-0.27-1.03-0.27-1.55,0c-0.16,0.08-0.35,0.02-0.44-0.14
			c-0.08-0.16-0.02-0.35,0.14-0.44c0.71-0.37,1.44-0.37,2.15,0c0.16,0.08,0.22,0.28,0.14,0.44C24.26,19.18,24.15,19.24,24.03,19.24z
			"/>
		<path class="st1" d="M22.19,19.35c-0.04,0-0.09-0.01-0.13-0.02c-0.11-0.03-0.2-0.11-0.25-0.21c-0.11-0.21-0.03-0.46,0.18-0.57
			c0.74-0.39,1.5-0.39,2.24,0c0.1,0.05,0.17,0.14,0.21,0.25c0.03,0.11,0.02,0.22-0.03,0.32c-0.11,0.2-0.37,0.28-0.57,0.18
			c-0.49-0.26-0.97-0.26-1.46,0C22.32,19.33,22.25,19.35,22.19,19.35z M23.11,18.46c-0.34,0-0.69,0.09-1.03,0.27
			c-0.11,0.06-0.15,0.19-0.09,0.3c0.03,0.05,0.07,0.09,0.13,0.11c0.06,0.02,0.12,0.01,0.17-0.01c0.55-0.29,1.09-0.29,1.64,0
			c0.11,0.06,0.24,0.01,0.3-0.09c0.03-0.05,0.03-0.11,0.02-0.17s-0.06-0.1-0.11-0.13C23.8,18.55,23.45,18.46,23.11,18.46z"/>
	</g>
	<g>
		<path class="st1" d="M25.7,19.24c-0.12,0-0.23-0.06-0.29-0.17c-0.08-0.16-0.02-0.35,0.14-0.44c0.71-0.37,1.44-0.37,2.15,0
			c0.16,0.08,0.22,0.28,0.14,0.44c-0.08,0.16-0.28,0.22-0.44,0.14c-0.52-0.27-1.03-0.27-1.55,0C25.8,19.23,25.75,19.24,25.7,19.24z"
			/>
		<path class="st1" d="M25.7,19.34c-0.16,0-0.3-0.09-0.38-0.23c-0.11-0.21-0.03-0.46,0.18-0.57c0.74-0.39,1.5-0.39,2.24,0
			c0.21,0.11,0.29,0.37,0.18,0.57c-0.11,0.21-0.37,0.29-0.57,0.18c-0.49-0.26-0.97-0.26-1.46,0C25.84,19.33,25.77,19.34,25.7,19.34z
			 M26.63,18.46c-0.34,0-0.69,0.09-1.03,0.27c-0.11,0.06-0.15,0.19-0.09,0.3c0.05,0.1,0.19,0.15,0.3,0.09
			c0.55-0.29,1.09-0.29,1.65,0c0.11,0.06,0.24,0.01,0.3-0.09c0.06-0.11,0.01-0.24-0.09-0.3C27.31,18.55,26.97,18.46,26.63,18.46z"/>
	</g>
	<g>
		<path class="st1" d="M24.87,23.43c-0.52,0-1.04-0.25-1.55-0.74c-0.13-0.12-0.13-0.33-0.01-0.46c0.12-0.13,0.33-0.13,0.46-0.01
			c0.76,0.74,1.43,0.74,2.2,0c0.13-0.12,0.33-0.12,0.46,0.01c0.12,0.13,0.12,0.33-0.01,0.46C25.91,23.19,25.39,23.43,24.87,23.43z"
			/>
		<path class="st1" d="M24.87,23.53c-0.55,0-1.09-0.26-1.62-0.77c-0.17-0.16-0.17-0.43-0.01-0.6c0.16-0.17,0.43-0.17,0.6-0.01
			c0.72,0.7,1.33,0.7,2.05,0c0.17-0.16,0.44-0.16,0.6,0.01c0.08,0.08,0.12,0.19,0.12,0.3c0,0.11-0.05,0.22-0.13,0.3
			C25.96,23.28,25.42,23.53,24.87,23.53z M23.55,22.24c-0.06,0-0.12,0.02-0.16,0.07c-0.09,0.09-0.08,0.23,0,0.31
			c0.97,0.94,1.98,0.94,2.96,0c0.04-0.04,0.07-0.1,0.07-0.16c0-0.06-0.02-0.12-0.06-0.16c-0.09-0.09-0.23-0.09-0.31,0
			c-0.8,0.77-1.54,0.77-2.34,0C23.66,22.26,23.6,22.24,23.55,22.24z"/>
	</g>
	<g>
		<path class="st1" d="M37.66,38.79h-5.48v-0.05l1.66-2.09c0.46-0.63,0.7-1.38,0.7-2.16v-4.34c0-1.4-1.08-2.61-2.57-2.86l-2.53-0.43
			c-0.82-0.14-1.42-0.79-1.42-1.55l-0.01-0.52c0.04-0.04,0.08-0.07,0.12-0.11c0.1-0.1,0.19-0.21,0.29-0.31
			c1.09-0.2,1.93-1.08,2.08-2.18h0.52c0.52,0,0.94-0.42,0.94-0.94v-2.58c0-0.52-0.42-0.94-0.94-0.94h-0.82l0-0.05
			c0.1-0.05,0.17-0.14,0.19-0.25c0.34-2.44-0.02-4.28-1.06-5.49c-0.94-1.09-2.43-1.64-4.41-1.64c-1.98,0-3.69,0.69-4.69,1.89
			c-0.99,1.2-1.3,2.85-0.92,4.89c0.02,0.09,0.07,0.16,0.14,0.21l0.03,0.44h-0.8c-0.52,0-0.93,0.42-0.93,0.94v2.58
			c0,0.52,0.42,0.94,0.93,0.94h1.33c0.34,1,0.91,1.89,1.67,2.61l-0.01,0.52c0,0.76-0.6,1.41-1.42,1.55l-2.53,0.43
			c-1.49,0.25-2.57,1.45-2.57,2.86v4.34c0,0.78,0.24,1.53,0.71,2.17l1.65,2.08v0.05h-5.48c-0.18,0-0.32,0.14-0.32,0.32
			c0,0.18,0.14,0.32,0.32,0.32h5.48h14.64h5.48c0.18,0,0.32-0.14,0.32-0.32C37.99,38.94,37.84,38.79,37.66,38.79z M33.33,36.26
			l-1.14,1.44v-4.72h1.71v1.51C33.9,35.13,33.7,35.75,33.33,36.26z M29.18,23.35c0.1-0.18,0.2-0.36,0.28-0.55
			c0.09-0.2,0.17-0.4,0.24-0.61h0.16C29.78,22.66,29.53,23.06,29.18,23.35z M31.03,18.39c0.16,0,0.29,0.13,0.29,0.29v2.58
			c0,0.16-0.13,0.29-0.29,0.29h-1.15c0.06-0.28,0.11-0.56,0.13-0.85l0.16-2.3L31.03,18.39L31.03,18.39z M29.04,12.96
			c0.04-0.07,0.07-0.13,0.1-0.2c0.63,0.96,0.86,2.3,0.69,4.02c0,0-0.01,0-0.01,0.01C28.82,15.96,28.12,15.07,29.04,12.96z
			 M20.75,12.63c0.87-1.05,2.4-1.66,4.19-1.66c1.66,0,2.92,0.41,3.75,1.23c-0.08,0.15-0.15,0.31-0.21,0.45
			c-1.58,2.94-4.58,4.38-8.54,4.09C19.64,15.01,19.92,13.63,20.75,12.63z M18.7,21.55c-0.16,0-0.29-0.13-0.29-0.29v-2.58
			c0-0.16,0.13-0.29,0.29-0.29h0.85l0.17,2.31c0.02,0.29,0.07,0.57,0.13,0.85L18.7,21.55L18.7,21.55z M20.37,20.65l-0.24-3.25
			c3.36,0.19,6.06-0.82,7.85-2.89c-0.07,1.45,0.78,2.26,1.61,2.92l-0.22,3.22c-0.06,0.66-0.22,1.29-0.49,1.89
			c-0.14,0.31-0.32,0.62-0.51,0.9c-0.08,0.11-0.17,0.22-0.25,0.33c-0.04,0-0.08,0.01-0.12,0.01h-1.88c-0.18,0-0.32,0.14-0.32,0.32
			c0,0.18,0.14,0.32,0.32,0.32h1.37c-0.55,0.49-1.17,0.87-1.86,1.12c-0.48,0.17-1.01,0.17-1.5,0
			C22.03,24.78,20.56,22.86,20.37,20.65z M22.35,25.33L22.35,25.33c0.47,0.34,0.99,0.62,1.55,0.82c0.31,0.11,0.64,0.17,0.97,0.17
			c0.33,0,0.66-0.06,0.97-0.17c0.56-0.2,1.08-0.49,1.55-0.83v0c0,0.75,0.4,1.42,1.02,1.82c-2.38,2.15-4.7,2.15-7.08,0
			C21.95,26.74,22.35,26.07,22.35,25.33z M17.87,27.93l2.53-0.43c0.1-0.02,0.2-0.04,0.3-0.07c1.39,1.32,2.78,1.99,4.18,1.99
			c1.4,0,2.79-0.67,4.17-1.99c0.1,0.03,0.2,0.05,0.3,0.07l2.53,0.43c1.17,0.2,2.03,1.13,2.03,2.22v2.18h-1.71V31.8
			c0-0.91-0.74-1.66-1.66-1.66H19.21c-0.91,0-1.66,0.74-1.66,1.66v0.53h-1.71v-2.18C15.84,29.06,16.69,28.13,17.87,27.93z
			 M16.42,36.27c-0.38-0.52-0.58-1.14-0.58-1.78v-1.51h1.71v4.72L16.42,36.27z M18.2,38.79V31.8c0-0.56,0.45-1.01,1.01-1.01h11.32
			c0.56,0,1.01,0.45,1.01,1.01v6.99H18.2z"/>
		<path class="st1" d="M37.66,39.54H12.07c-0.23,0-0.42-0.19-0.42-0.42s0.19-0.42,0.42-0.42h5.31l-1.56-1.97
			c-0.48-0.66-0.73-1.43-0.73-2.23v-4.34c0-1.45,1.11-2.7,2.65-2.96l2.53-0.43c0.77-0.13,1.33-0.74,1.33-1.45l0.01-0.48
			c-0.74-0.71-1.31-1.58-1.64-2.55H18.7c-0.57,0-1.04-0.46-1.04-1.04v-2.58c0-0.57,0.46-1.04,1.04-1.04h0.69l-0.02-0.28
			c-0.08-0.06-0.13-0.15-0.14-0.24c-0.39-2.07-0.08-3.75,0.94-4.97c1.02-1.23,2.75-1.93,4.77-1.93c2.01,0,3.52,0.56,4.48,1.67
			c1.07,1.23,1.43,3.1,1.09,5.57c-0.01,0.07-0.03,0.13-0.07,0.18h0.6c0.57,0,1.04,0.46,1.04,1.04v2.58c0,0.57-0.46,1.04-1.04,1.04
			H30.6c-0.18,1.08-1.03,1.97-2.11,2.18c-0.09,0.1-0.18,0.2-0.27,0.29c-0.02,0.02-0.05,0.04-0.07,0.07
			c-0.01,0.01-0.01,0.01-0.02,0.02l0.01,0.47c0,0.71,0.56,1.33,1.33,1.46L32,27.19c1.54,0.26,2.65,1.5,2.65,2.96v4.34
			c0,0.8-0.25,1.57-0.72,2.22l-1.57,1.99h5.31c0.23,0,0.42,0.19,0.42,0.42S37.9,39.54,37.66,39.54z M12.07,38.9
			c-0.12,0-0.22,0.1-0.22,0.22c0,0.12,0.1,0.22,0.22,0.22h25.59c0.12,0,0.22-0.1,0.22-0.22c0-0.12-0.1-0.22-0.22-0.22h-5.58v-0.19
			l1.68-2.12c0.44-0.61,0.68-1.34,0.68-2.1v-4.34c0-1.36-1.04-2.52-2.48-2.76l-2.53-0.43c-0.87-0.15-1.5-0.84-1.5-1.65l-0.01-0.56
			l0.03-0.03c0.02-0.02,0.04-0.04,0.06-0.05c0.02-0.02,0.04-0.04,0.06-0.06c0.09-0.09,0.18-0.19,0.27-0.29l0.02-0.03l0.05-0.02
			c1.04-0.19,1.86-1.05,1.99-2.1l0.01-0.09h0.61c0.46,0,0.83-0.37,0.83-0.83v-2.58c0-0.46-0.37-0.83-0.83-0.83h-0.92l0.02-0.22
			l0.05-0.03c0.07-0.03,0.12-0.1,0.13-0.17c0.34-2.41-0.01-4.23-1.04-5.41c-0.92-1.06-2.38-1.6-4.33-1.6
			c-1.95,0-3.63,0.68-4.61,1.86c-0.97,1.18-1.28,2.79-0.9,4.81c0.01,0.06,0.05,0.11,0.1,0.14l0.04,0.03l0.04,0.59H18.7
			c-0.46,0-0.83,0.37-0.83,0.83v2.58c0,0.46,0.37,0.83,0.83,0.83h1.41l0.02,0.07c0.33,0.97,0.9,1.86,1.65,2.57l0.03,0.03l-0.01,0.57
			c0,0.8-0.63,1.5-1.5,1.64l-2.53,0.43c-1.44,0.24-2.48,1.4-2.48,2.76v4.34c0,0.76,0.24,1.49,0.69,2.11l1.67,2.11v0.19H12.07z
			 M31.64,38.9H18.1v-7.1c0-0.61,0.5-1.11,1.11-1.11h11.32c0.61,0,1.11,0.5,1.11,1.11V38.9z M18.3,38.69h13.14V31.8
			c0-0.5-0.41-0.91-0.91-0.91H19.21c-0.5,0-0.91,0.41-0.91,0.91V38.69z M17.65,37.99l-1.32-1.66c-0.39-0.54-0.6-1.17-0.6-1.84v-1.61
			h1.91V37.99z M16.5,36.21l0.95,1.2v-4.33h-1.51v1.41C15.94,35.11,16.13,35.7,16.5,36.21z M32.09,37.99v-5.11H34v1.61
			c0,0.66-0.2,1.3-0.59,1.83l0,0L32.09,37.99z M32.29,33.08v4.33l0.96-1.21c0.36-0.5,0.55-1.09,0.55-1.71v-1.41H32.29z M34,32.43
			h-1.91V31.8c0-0.86-0.7-1.56-1.56-1.56H19.21c-0.86,0-1.56,0.7-1.56,1.56v0.63h-1.91v-2.28c0-1.14,0.89-2.11,2.11-2.32l2.53-0.43
			c0.09-0.02,0.18-0.04,0.29-0.07l0.06-0.02l0.04,0.04c1.37,1.3,2.75,1.96,4.11,1.96c1.36,0,2.74-0.66,4.1-1.96l0.04-0.04l0.06,0.02
			c0.11,0.03,0.2,0.05,0.29,0.07l2.53,0.43c1.22,0.21,2.11,1.18,2.11,2.32V32.43z M32.29,32.23h1.51v-2.08
			c0-1.04-0.82-1.93-1.94-2.12l-2.53-0.43c-0.08-0.01-0.16-0.03-0.26-0.06c-1.39,1.31-2.8,1.97-4.2,1.97c-1.4,0-2.82-0.66-4.21-1.97
			c-0.09,0.03-0.18,0.04-0.26,0.06l-2.53,0.43l-0.02-0.1l0.02,0.1c-1.13,0.19-1.94,1.08-1.94,2.12v2.08h1.51V31.8
			c0-0.97,0.79-1.76,1.76-1.76h11.32c0.97,0,1.76,0.79,1.76,1.76V32.23z M24.87,28.87c-1.2,0-2.4-0.55-3.61-1.65l-0.1-0.09
			l0.11-0.07c0.61-0.4,0.97-1.04,0.97-1.73v-0.2l0.16,0.12c0.47,0.34,0.99,0.61,1.53,0.81c0.6,0.22,1.27,0.22,1.87,0
			c0.53-0.19,1.04-0.47,1.53-0.82l0.16-0.12v0.2c0,0.69,0.36,1.34,0.97,1.74l0.11,0.07l-0.1,0.09
			C27.27,28.32,26.07,28.87,24.87,28.87z M21.49,27.15c2.27,2,4.49,2,6.75,0c-0.55-0.4-0.89-1-0.95-1.64
			c-0.46,0.31-0.93,0.56-1.43,0.74c-0.64,0.23-1.36,0.23-2,0c-0.5-0.18-0.98-0.43-1.43-0.73C22.39,26.16,22.04,26.75,21.49,27.15z
			 M24.87,25.77c-0.27,0-0.53-0.05-0.78-0.14c-2.13-0.77-3.63-2.72-3.82-4.98l0,0l-0.25-3.36l0.12,0.01c3.31,0.18,6-0.8,7.77-2.86
			l0.19-0.22l-0.01,0.29c-0.07,1.41,0.78,2.2,1.57,2.83l0.04,0.03l-0.23,3.27c-0.06,0.67-0.22,1.31-0.5,1.92
			c-0.15,0.32-0.32,0.63-0.52,0.92c-0.08,0.12-0.18,0.24-0.26,0.34l-0.03,0.03l-0.07,0c-0.03,0-0.07,0-0.1,0h-1.88
			c-0.12,0-0.22,0.1-0.22,0.22c0,0.12,0.1,0.22,0.22,0.22h1.64l-0.2,0.18c-0.57,0.51-1.2,0.89-1.89,1.14
			C25.4,25.73,25.13,25.77,24.87,25.77z M20.47,20.64c0.18,2.18,1.63,4.06,3.68,4.81c0.46,0.17,0.97,0.17,1.43,0
			c0.58-0.21,1.13-0.52,1.62-0.92h-1.1c-0.23,0-0.42-0.19-0.42-0.42c0-0.23,0.19-0.42,0.42-0.42h1.88c0.02,0,0.05,0,0.07,0
			c0.07-0.09,0.15-0.19,0.22-0.29c0.19-0.28,0.37-0.58,0.51-0.89c0.27-0.59,0.43-1.21,0.48-1.85l0.22-3.16
			c-0.77-0.61-1.57-1.38-1.61-2.7c-1.79,1.94-4.42,2.88-7.64,2.73L20.47,20.64z M28.82,23.77l0.27-0.48
			c0.11-0.19,0.2-0.36,0.28-0.54c0.08-0.18,0.16-0.37,0.23-0.6l0.02-0.07h0.35l-0.02,0.12c-0.08,0.48-0.33,0.91-0.71,1.21
			L28.82,23.77z M31.03,21.65h-1.28l0.03-0.12c0.07-0.31,0.11-0.58,0.13-0.84l0.17-2.39l0.95,0c0.21,0,0.39,0.17,0.39,0.39v2.58
			C31.42,21.47,31.25,21.65,31.03,21.65z M30,21.44h1.03c0.1,0,0.19-0.08,0.19-0.19v-2.58c0-0.1-0.08-0.19-0.19-0.19l-0.77,0
			l-0.15,2.21C30.09,20.93,30.06,21.18,30,21.44z M18.7,21.65c-0.21,0-0.39-0.17-0.39-0.39v-2.58c0-0.21,0.17-0.39,0.39-0.39h0.94
			l0.18,2.4c0.02,0.27,0.07,0.55,0.13,0.83l0.03,0.12L18.7,21.65z M18.7,18.49c-0.1,0-0.19,0.08-0.19,0.19v2.58
			c0,0.1,0.08,0.19,0.19,0.19l1.03,0c-0.05-0.25-0.09-0.5-0.11-0.74l-0.16-2.21H18.7z M29.81,16.9l-0.05-0.04
			c-0.95-0.77-1.79-1.71-0.82-3.94l0-0.01c0.04-0.07,0.07-0.13,0.1-0.2l0.08-0.16l0.1,0.15c0.64,0.97,0.88,2.35,0.71,4.08
			l-0.01,0.07L29.81,16.9z M29.13,13.01c-0.87,1.99-0.23,2.86,0.62,3.59c0.12-1.52-0.08-2.74-0.6-3.63
			C29.14,12.98,29.13,12.99,29.13,13.01z M20.88,16.88c-0.32,0-0.64-0.01-0.97-0.04l-0.08-0.01l-0.01-0.08
			c-0.29-1.76,0-3.17,0.84-4.19c0.89-1.08,2.45-1.69,4.27-1.69c1.69,0,2.97,0.42,3.82,1.26l0.05,0.05l-0.03,0.07
			c-0.08,0.15-0.15,0.3-0.21,0.45C27.1,15.41,24.39,16.88,20.88,16.88z M20.01,16.65c3.85,0.26,6.82-1.18,8.37-4.04
			c0.05-0.12,0.11-0.25,0.18-0.38c-0.8-0.76-2.02-1.15-3.62-1.15c-1.76,0-3.26,0.59-4.11,1.62v0
			C20.03,13.65,19.76,14.98,20.01,16.65z"/>
	</g>
</g>
</svg>
