<?xml version="1.0" encoding="utf-8"?>
<!-- Generator: Adobe Illustrator 24.1.2, SVG Export Plug-In . SVG Version: 6.00 Build 0)  -->
<svg version="1.1" id="Ebene_1" xmlns="http://www.w3.org/2000/svg" xmlns:xlink="http://www.w3.org/1999/xlink" x="0px" y="0px"
	 viewBox="0 0 241 241" style="enable-background:new 0 0 241 241;" xml:space="preserve">
<style type="text/css">
	.st0{display:none;fill:#FFFFFF;}
	.st1{fill:#f86f41;}
</style>
<path id="White" class="st0" d="M120.5,0.78c-66.2,0-120,53.8-120,120s53.8,120,120,120s120-53.8,120-120S186.7,0.78,120.5,0.78z
	 M120.5,233.78c-62.3,0-113-50.7-113-113s50.7-113,113-113s113,50.7,113,113S182.8,233.78,120.5,233.78z"/>

<g>
	<g>
		<path class="st1" d="M120.38,176.56l-2.69-0.49c-2.13-0.38-52.31-10.29-52.31-86.19l0.02-14.67l14.66-0.48
			c0.18-0.01,18.67-0.73,34.86-6.97l5.48-2.11l5.47,2.12c15.93,6.19,34.05,6.93,34.82,6.96l14.69,0.44v14.72
			c0,75.9-50.17,85.8-52.31,86.19L120.38,176.56z M72.28,81.88l-0.01,8.01c0,70.2,44.74,79.06,46.64,79.4l1.47,0.27l1.46-0.27
			c1.91-0.34,46.64-9.2,46.64-79.4v-8.03l-8.02-0.24c-0.84-0.03-20.09-0.82-37.09-7.42l-2.98-1.16l-2.99,1.15
			c-17.26,6.66-36.31,7.4-37.11,7.43L72.28,81.88z"/>
	</g>
	<g>
		<g>
			<path class="st1" d="M152.72,89.31c-7.77-0.82-20.44-2.78-32.34-7.41c-19.08,7.36-39.84,7.98-39.84,7.98
				c0,22.62,4.97,38.13,11.39,48.76L152.72,89.31z"/>
		</g>
		<g>
			<path class="st1" d="M98.05,146.99c10.7,12.04,22.33,14.16,22.33,14.16s36.95-6.68,39.66-64.47L98.05,146.99z"/>
		</g>
	</g>
</g>
</svg>
