<?xml version="1.0" encoding="utf-8"?>
<!-- Generator: Adobe Illustrator 24.1.2, SVG Export Plug-In . SVG Version: 6.00 Build 0)  -->
<svg version="1.1" id="Ebene_1" xmlns="http://www.w3.org/2000/svg" xmlns:xlink="http://www.w3.org/1999/xlink" x="0px" y="0px"
	 viewBox="0 0 240 240" style="enable-background:new 0 0 240 240;" xml:space="preserve">
<style type="text/css">
	.st0{fill:#f86f41;}
</style>

<g>
	<g transform="matrix(1,0,0,1,52,48.2363)">
<path class="st0" d="M125.1,118.4h-13.4c-1.9,0-3.5-1.6-3.5-3.5V17.6H37.8c-1.9,0-3.5-1.6-3.5-3.5V0.7c0-1.9,1.6-3.5,3.5-3.5h87.3
			c1.9,0,3.5,1.6,3.5,3.5v114.2C128.6,116.8,127.1,118.4,125.1,118.4z M115.2,111.4h6.4V4.2H41.3v6.4h70.4c1.9,0,3.5,1.6,3.5,3.5
			V111.4z"/>
	</g>
	<g transform="matrix(1,0,0,1,44.4707,52.0003)">
<path class="st0" d="M119.2,128h-13.4c-1.9,0-3.5-1.6-3.5-3.5v-13.4c0-1.9,1.6-3.5,3.5-3.5s3.5,1.6,3.5,3.5v9.9h6.4v-9.9
			c0-1.9,1.6-3.5,3.5-3.5s3.5,1.6,3.5,3.5v13.4C122.7,126.5,121.2,128,119.2,128z"/>
	</g>
	<g transform="matrix(1,0,0,1,27.5303,23.7669)">
<path class="st0" d="M62.3,55.5H48.9c-1.9,0-3.5-1.6-3.5-3.5V38.6c0-1.9,1.6-3.5,3.5-3.5h13.4c1.9,0,3.5,1.6,3.5,3.5
			s-1.6,3.5-3.5,3.5h-9.9v6.4h9.9c1.9,0,3.5,1.6,3.5,3.5S64.2,55.5,62.3,55.5z"/>
	</g>
	<g transform="matrix(1,0,0,1,48.2358,20.0033)">
<path class="st0" d="M115.5,146.6c-1.9,0-3.5-1.6-3.5-3.5V45.9H41.6c-1.9,0-3.5-1.6-3.5-3.5s1.6-3.5,3.5-3.5h73.9
			c1.9,0,3.5,1.6,3.5,3.5v100.7C119,145,117.4,146.6,115.5,146.6z"/>
	</g>
	<g transform="matrix(1,0,0,1,44.4707,25.2856)">
<path class="st0" d="M105.8,168.2H18.5c-1.9,0-3.5-1.6-3.5-3.5V50.5c0-1.9,1.6-3.5,3.5-3.5h87.3c1.9,0,3.5,1.6,3.5,3.5v108.7
			c0,0,0,0.1,0,0.1v5.3C109.3,166.6,107.7,168.2,105.8,168.2z M22,161.2h80.3v-9.9c0,0,0-0.1,0-0.1V54H22V161.2z"/>
	</g>
	<g transform="matrix(1,0,0,1,26.2778,47.4878)">
<path class="st0" d="M101.6,116.4H59.1c-1.9,0-3.5-1.6-3.5-3.5s1.6-3.5,3.5-3.5h42.5c1.9,0,3.5,1.6,3.5,3.5
			S103.5,116.4,101.6,116.4z"/>
	</g>
	<g transform="matrix(1,0,0,1,26.2778,43.1382)">
<path class="st0" d="M101.6,105.3H59.1c-1.9,0-3.5-1.6-3.5-3.5s1.6-3.5,3.5-3.5h42.5c1.9,0,3.5,1.6,3.5,3.5
			S103.5,105.3,101.6,105.3z"/>
	</g>
	<g transform="matrix(1,0,0,1,26.2778,38.4321)">
<path class="st0" d="M101.6,93.2H59.1c-1.9,0-3.5-1.6-3.5-3.5s1.6-3.5,3.5-3.5h42.5c1.9,0,3.5,1.6,3.5,3.5S103.5,93.2,101.6,93.2z
			"/>
	</g>
	<g transform="matrix(1,0,0,1,28.6616,33.021)">
<path class="st0" d="M90.7,79.3H65.2c-1.9,0-3.5-1.6-3.5-3.5s1.6-3.5,3.5-3.5h25.5c1.9,0,3.5,1.6,3.5,3.5S92.7,79.3,90.7,79.3z"/>
	</g>
</g>
</svg>
