<?xml version="1.0" encoding="utf-8"?>
<!-- Generator: Adobe Illustrator 25.3.0, SVG Export Plug-In . SVG Version: 6.00 Build 0)  -->
<svg version="1.1" id="Ebene_1" xmlns="http://www.w3.org/2000/svg" xmlns:xlink="http://www.w3.org/1999/xlink" x="0px" y="0px"
	 viewBox="0 0 241 241" style="enable-background:new 0 0 241 241;" xml:space="preserve">
<style type="text/css">
	.st0{fill:#f86f41;}
	.st1{fill:none;stroke:#006CA1;stroke-width:6;stroke-miterlimit:10;}
</style>

<g>
	<g>
		<g>
			<path class="st0" d="M167,180.6H73.8V60.6H147l20,20L167,180.6L167,180.6z M79.8,174.6H161V83l-16.4-16.5H79.8V174.6z"/>
		</g>
	</g>
	<polygon class="st0" points="164,84.8 142,84.8 142,63.6 148,63.6 148,78.8 164,78.8 	"/>
	<g>
		<path class="st0" d="M94.1,142.9h-6v-29.8h11.2c5.2,0,9.4,4.2,9.4,9.4v1.4c0,5.2-4.2,9.4-9.4,9.4h-5.2V142.9z M94.1,127.3h5.2
			c1.9,0,3.4-1.5,3.4-3.4v-1.4c0-1.9-1.5-3.4-3.4-3.4h-5.2V127.3z"/>
		<path class="st0" d="M120.5,145.1h-10.7v-32h10.7c7.7,0,13.9,6.2,13.9,13.9v4.2C134.4,138.8,128.2,145.1,120.5,145.1z
			 M115.8,139.1h4.7c4.3,0,7.9-3.5,7.9-7.9V127c0-4.3-3.5-7.9-7.9-7.9h-4.7V139.1z"/>
		<polygon class="st0" points="141.9,142.9 135.9,142.9 135.9,113.1 154.5,113.1 154.5,119.1 141.9,119.1 		"/>
		<path class="st1" d="M150.8,129.7"/>
		<rect x="138.9" y="126.7" class="st0" width="11.9" height="6"/>
	</g>
</g>
</svg>
