<?xml version="1.0" encoding="utf-8"?>
<!-- Generator: Adobe Illustrator 24.1.2, SVG Export Plug-In . SVG Version: 6.00 Build 0)  -->
<svg version="1.1" id="Ebene_1" xmlns="http://www.w3.org/2000/svg" xmlns:xlink="http://www.w3.org/1999/xlink" x="0px" y="0px"
	 viewBox="0 0 240 240" style="enable-background:new 0 0 240 240;" xml:space="preserve">
<style type="text/css">
	.st0{fill:#f86f41;}
</style>

<g transform="matrix(1,0,0,1,52.395,31.9688)">
<path class="st0" d="M117.4,143.3H17c-19.6,0-35.5-15.9-35.5-35.5c0-17,12-31.4,28.4-34.8c1.4-7.9,6.3-14.7,13.4-18.5
		c7.1-3.8,15.3-4.2,22.5-1.2C57.1,37.8,76.1,30.8,95,35.5c19.2,4.7,32.9,20,35.3,39.4c13.6,5.3,22.5,18.3,22.5,33
		C152.9,127.4,136.9,143.3,117.4,143.3z M35.9,58.4c-3.2,0-6.3,0.8-9.3,2.4c-5.9,3.2-9.6,9-10.1,15.6l-0.2,2.9l-2.9,0.4
		c-14.3,1.7-25,13.9-25,28.2c0,15.7,12.8,28.5,28.5,28.5h100.3c15.7,0,28.5-12.8,28.5-28.5c0-12.5-8-23.4-19.9-27.1l-2.2-0.7
		l-0.2-2.3c-1.4-17.3-13.3-31.2-30.3-35.4c-13.5-3.3-32-0.5-43.3,17.4l-1.8,2.8l-2.9-1.6C42.4,59.3,39.2,58.4,35.9,58.4z"/>
</g>
</svg>
