<?xml version="1.0" encoding="utf-8"?>
<!-- Generator: Adobe Illustrator 24.1.2, SVG Export Plug-In . SVG Version: 6.00 Build 0)  -->
<svg version="1.1" id="Ebene_1" xmlns="http://www.w3.org/2000/svg" xmlns:xlink="http://www.w3.org/1999/xlink" x="0px" y="0px"
	 viewBox="0 0 241 241" style="enable-background:new 0 0 241 241;" xml:space="preserve">
<style type="text/css">
	.st0{display:none;fill:#FFFFFF;}
	.st1{fill:#f86f41;}
</style>
<path id="White" class="st0" d="M120.5,0.78c-66.2,0-120,53.8-120,120s53.8,120,120,120s120-53.8,120-120S186.7,0.78,120.5,0.78z
	 M120.5,233.78c-62.3,0-113-50.7-113-113s50.7-113,113-113s113,50.7,113,113S182.8,233.78,120.5,233.78z"/>

<g>
	<path class="st1" d="M129.13,170.09l-0.68-5.66c28.84-3.46,49.48-29.73,46.03-58.57c-2.44-20.31-16.58-37.52-36.05-43.85l1.76-5.42
		c21.58,7.01,37.26,26.09,39.95,48.59C183.97,137.14,161.09,166.26,129.13,170.09"/>
	<path class="st1" d="M114.65,185.65h-5.71c0-10.95,8.2-19.88,19.51-21.23l0.68,5.67C119.63,171.22,114.65,178.78,114.65,185.65"/>
	<path class="st1" d="M110.24,170.09c-31.95-3.83-54.84-32.95-51.01-64.91c2.7-22.5,18.38-41.58,39.95-48.59l1.76,5.42
		c-19.47,6.33-33.62,23.54-36.05,43.85c-3.45,28.84,17.19,55.11,46.03,58.57L110.24,170.09z"/>
	<path class="st1" d="M130.43,185.65h-5.71c0-6.87-4.98-14.43-14.48-15.56l0.69-5.67C122.23,165.78,130.43,174.7,130.43,185.65"/>
	<path class="st1" d="M119.69,74.1c-21,0-38.08,17.08-38.08,38.08c0,21,17.08,38.08,38.08,38.08c20.99,0,38.08-17.08,38.08-38.08
		C157.77,91.18,140.68,74.1,119.69,74.1 M119.69,155.96c-24.14,0-43.78-19.64-43.78-43.78c0-24.14,19.64-43.78,43.78-43.78
		c24.14,0,43.78,19.64,43.78,43.78C163.48,136.32,143.83,155.96,119.69,155.96"/>
</g>
<path class="st1" d="M97.83,112.13l16.12,16.12l27.6-27.59l-4.57-4.56l-23.03,23.03l-11.56-11.57L97.83,112.13z M113.95,136.32
	l-24.19-24.19l12.63-12.63l11.56,11.56l23.03-23.03l12.63,12.62L113.95,136.32z"/>
</svg>
