<svg id="Ebene_1" data-name="Ebene 1" xmlns="http://www.w3.org/2000/svg" viewBox="0 0 240 240"><defs><style>.cls-1{fill:#f86f41;}</style></defs><path class="cls-1" d="M160.58,77.75H104.15a2,2,0,0,0,0,4h56.43a2,2,0,1,0,0-4Z"/><path class="cls-1" d="M179.16,57.65H60.84a3.49,3.49,0,0,0-3.5,3.5v117.7a3.49,3.49,0,0,0,3.5,3.5h12.3V190a3.5,3.5,0,0,0,3.5,3.5H99a3.5,3.5,0,0,0,3.5-3.5v-7.68h35V190a3.5,3.5,0,0,0,3.5,3.5h22.35a3.5,3.5,0,0,0,3.5-3.5v-7.68h12.31a3.5,3.5,0,0,0,3.5-3.5V61.15A3.5,3.5,0,0,0,179.16,57.65ZM64.34,103.88H175.66v32.24H64.34Zm0-39.23H175.66V96.88H64.34ZM95.5,186.53H80.14v-4.18H95.5Zm64.35,0H144.5v-4.18h15.35Zm15.81-11.18H64.34V143.12H175.66Z"/><path class="cls-1" d="M82.27,73.39a6.38,6.38,0,1,0,6.37,6.38A6.38,6.38,0,0,0,82.27,73.39Z"/><path class="cls-1" d="M160.58,117H104.15a2,2,0,0,0,0,4h56.43a2,2,0,1,0,0-4Z"/><path class="cls-1" d="M82.27,112.62A6.39,6.39,0,1,0,88.64,119,6.38,6.38,0,0,0,82.27,112.62Z"/><path class="cls-1" d="M104.15,160.26h56.43a2,2,0,1,0,0-4H104.15a2,2,0,0,0,0,4Z"/><path class="cls-1" d="M82.27,164.62a6.38,6.38,0,1,0-6.38-6.37A6.37,6.37,0,0,0,82.27,164.62Z"/></svg>