<svg id="Ebene_1" data-name="Ebene 1" xmlns="http://www.w3.org/2000/svg" viewBox="0 0 240 240"><defs><style>.cls-1{fill:#f86f41;}</style></defs><path class="cls-1" d="M176.6,73.8c-.61-4.85-4.54-7.51-9.78-6.1l-.68.18a42.38,42.38,0,0,1-10.49,1.38c-16.67,0-26-11.39-28.66-15.15a5.63,5.63,0,0,0-4.68-2.62,4.64,4.64,0,0,0-4.3,2.69C115.3,58,105.94,69.27,89.4,69.27a43.4,43.4,0,0,1-11.69-1.71,8.43,8.43,0,0,0-2.37-.34A6.74,6.74,0,0,0,68.45,74c0,1-.11,2.25-.19,3.67-1.37,24.61-5.54,99.48,52.33,120l2,.75,2-.6c59.52-21.12,55-99.41,52.16-122.9ZM122.79,188.94l-.06,0V63.3l.06-.1a43.7,43.7,0,0,0,32.85,15h0a51,51,0,0,0,12.26-1.55C170.51,99.16,174.24,169.76,122.79,188.94Z"/></svg>