<?xml version="1.0" encoding="utf-8"?>
<!-- Generator: Adobe Illustrator 25.3.0, SVG Export Plug-In . SVG Version: 6.00 Build 0)  -->
<svg version="1.1" id="Ebene_1" xmlns="http://www.w3.org/2000/svg" xmlns:xlink="http://www.w3.org/1999/xlink" x="0px" y="0px"
	 viewBox="0 0 240 240" style="enable-background:new 0 0 240 240;" xml:space="preserve">
<style type="text/css">
	.st0{fill:#f86f41;}
</style>

<g>
<path class="st0" d="M155,178.5H85c-6.9,0-12.5-6.4-12.5-14.2c0-1.4,0-3.7,0-4.2V160v-0.1c0.1-3.3,1.1-9.9,3.5-13.6
		c5.2-8.1,11.7-13.2,20.3-16.1c1.6-0.7,8.5-3.4,23.7-3.4s22.1,2.7,23.7,3.4c8.6,2.9,15.1,8,20.3,16.2c2.4,3.7,3.4,10.3,3.5,13.6v0.1
		v0.1c0,0.8,0,4.2,0,4.2C167.5,172.1,161.9,178.5,155,178.5z M79.5,159.9c0,1,0,4,0,4.4c0,3.9,2.5,7.2,5.5,7.2h70
		c3,0,5.5-3.2,5.5-7.2c0,0,0-3.4,0-4.3c-0.1-3.1-1.1-7.9-2.4-9.9l0,0c-4.4-6.9-9.6-11-16.8-13.4l-0.5-0.2c0,0-5.9-2.8-20.8-2.8
		c-14.8,0-20.7,2.8-20.8,2.8l-0.5,0.2c-7.2,2.4-12.4,6.5-16.8,13.4C80.6,152,79.6,156.8,79.5,159.9z"/>
<path class="st0" d="M120,126.9c-18.4,0-28.2-21.7-28.2-37.4c0-15.6,12.6-28.3,28.2-28.3c15.5,0,28.2,12.7,28.2,28.3
		C148.2,104.8,138.1,126.9,120,126.9z M120,68.2c-11.7,0-21.2,9.6-21.2,21.3c0,12.4,7.5,30.4,21.2,30.4c13.1,0,21.2-17.7,21.2-30.4
		C141.2,77.8,131.7,68.2,120,68.2z"/>
<path class="st0" d="M120,169.6l-8.5-9.1l8.5-25l8.5,25L120,169.6z M116,159.5l4,4.2l4-4.2l-4-11.6L116,159.5z"/>
</g>
</svg>
