<?xml version="1.0" encoding="utf-8"?>
<!-- Generator: Adobe Illustrator 25.3.0, SVG Export Plug-In . SVG Version: 6.00 Build 0)  -->
<svg version="1.1" id="Ebene_1" xmlns="http://www.w3.org/2000/svg" xmlns:xlink="http://www.w3.org/1999/xlink" x="0px" y="0px"
	 viewBox="0 0 241 241" style="enable-background:new 0 0 241 241;" xml:space="preserve">
<style type="text/css">
	.st0{fill:#f86f41;}
</style>

<g>
	<g>
		<path class="st0" d="M144.7,100H95.8V61.7h48.9L144.7,100L144.7,100z M102.8,93h34.9V68.7h-34.9V93z"/>
		<path class="st0" d="M144.7,180.6H95.8v-38.3h48.9L144.7,180.6L144.7,180.6z M102.8,173.6h34.9v-24.3h-34.9V173.6z"/>
		<path class="st0" d="M92.9,180.6H44v-38.3h48.9V180.6z M51,173.6h34.9v-24.3H51V173.6z"/>
		<path class="st0" d="M196.5,180.6h-48.9v-38.3h48.9V180.6z M154.6,173.6h34.9v-24.3h-34.9V173.6z"/>
		<polygon class="st0" points="175.6,145.9 168.6,145.9 168.6,132.3 71.9,132.3 71.9,145.9 64.9,145.9 64.9,125.3 175.6,125.3 		"/>
		<rect x="116.8" y="96.5" class="st0" width="7" height="49.4"/>
	</g>
</g>
</svg>
