<?xml version="1.0" encoding="utf-8"?>
<!-- Generator: Adobe Illustrator 24.1.2, SVG Export Plug-In . SVG Version: 6.00 Build 0)  -->
<svg version="1.1" id="Ebene_1" xmlns="http://www.w3.org/2000/svg" xmlns:xlink="http://www.w3.org/1999/xlink" x="0px" y="0px"
	 viewBox="0 0 241 241" style="enable-background:new 0 0 241 241;" xml:space="preserve">
<style type="text/css">
	.st0{display:none;fill:#FFFFFF;}
	.st1{fill:#f86f41;}
	.st2{clip-path:url(#SVGID_2_);}
	.st3{clip-path:url(#SVGID_4_);fill:#f86f41;}
</style>
<path id="White" class="st0" d="M120.5,0.78c-66.2,0-120,53.8-120,120s53.8,120,120,120s120-53.8,120-120S186.7,0.78,120.5,0.78z
	 M120.5,233.78c-62.3,0-113-50.7-113-113s50.7-113,113-113s113,50.7,113,113S182.8,233.78,120.5,233.78z"/>

<g>
	<defs>
		<rect id="SVGID_1_" x="49.67" y="61.42" width="141.63" height="119.55"/>
	</defs>
	<clipPath id="SVGID_2_">
		<use xlink:href="#SVGID_1_"  style="overflow:visible;"/>
	</clipPath>
	<g class="st2">
		<path class="st1" d="M183.17,160.61H57.81c-4.49,0-8.13-3.65-8.13-8.14V69.55c0-4.49,3.65-8.14,8.13-8.14h125.36
			c4.49,0,8.13,3.65,8.13,8.14v82.92C191.3,156.96,187.65,160.61,183.17,160.61 M57.81,64.77c-2.64,0-4.78,2.15-4.78,4.78v82.92
			c0,2.64,2.14,4.78,4.78,4.78h125.36c2.63,0,4.78-2.14,4.78-4.78V69.55c0-2.63-2.14-4.78-4.78-4.78H57.81z"/>
		<path class="st1" d="M183.17,162.12H57.81c-5.31,0-9.63-4.32-9.63-9.64V69.55c0-5.31,4.32-9.64,9.63-9.64h125.36
			c5.31,0,9.63,4.32,9.63,9.64v82.92C192.8,157.79,188.48,162.12,183.17,162.12z M57.81,62.92c-3.66,0-6.63,2.98-6.63,6.64v82.92
			c0,3.66,2.98,6.64,6.63,6.64h125.36c3.66,0,6.63-2.98,6.63-6.64V69.55c0-3.66-2.98-6.64-6.63-6.64H57.81z M183.17,158.76H57.81
			c-3.46,0-6.28-2.82-6.28-6.28V69.55c0-3.46,2.81-6.28,6.28-6.28h125.36c3.46,0,6.28,2.82,6.28,6.28v82.92
			C189.44,155.94,186.63,158.76,183.17,158.76z M57.81,66.27c-1.81,0-3.28,1.47-3.28,3.28v82.92c0,1.81,1.47,3.28,3.28,3.28h125.36
			c1.81,0,3.28-1.47,3.28-3.28V69.55c0-1.81-1.47-3.28-3.28-3.28H57.81z"/>
	</g>
</g>
<rect x="51.35" y="141.88" class="st1" width="138.27" height="3.36"/>
<path class="st1" d="M110,160.62h20.57l8.27,17h-37.1L110,160.62z M107.9,157.26l-11.53,23.71h47.84l-11.54-23.71H107.9z"/>
<rect x="89.93" y="177.61" class="st1" width="61.11" height="3.35"/>
<g>
	<defs>
		<rect id="SVGID_3_" x="49.67" y="61.42" width="141.63" height="119.55"/>
	</defs>
	<clipPath id="SVGID_4_">
		<use xlink:href="#SVGID_3_"  style="overflow:visible;"/>
	</clipPath>
	<path class="st3" d="M180.79,137.63H60.18c-1.59,0-2.9-1.3-2.9-2.9v-62.8c0-1.59,1.3-2.89,2.9-2.89h120.61
		c1.59,0,2.89,1.3,2.89,2.89v62.8C183.69,136.33,182.39,137.63,180.79,137.63 M60.65,134.27h119.68V72.39H60.65V134.27z"/>
</g>
<rect x="74.45" y="84.6" class="st1" width="4" height="3.35"/>
<rect x="78.45" y="84.6" class="st1" width="4" height="3.35"/>
<rect x="86.46" y="84.6" class="st1" width="4" height="3.35"/>
<rect x="90.46" y="84.6" class="st1" width="4" height="3.35"/>
<rect x="94.46" y="84.6" class="st1" width="4" height="3.35"/>
<rect x="98.47" y="84.6" class="st1" width="4" height="3.35"/>
<rect x="102.47" y="84.6" class="st1" width="4" height="3.35"/>
<rect x="110.48" y="84.6" class="st1" width="4" height="3.35"/>
<rect x="118.49" y="84.6" class="st1" width="4" height="3.35"/>
<rect x="122.49" y="84.6" class="st1" width="4.01" height="3.35"/>
<rect x="130.5" y="84.6" class="st1" width="4" height="3.35"/>
<rect x="134.5" y="84.6" class="st1" width="4.01" height="3.35"/>
<rect x="142.51" y="84.6" class="st1" width="4" height="3.35"/>
<rect x="150.51" y="84.6" class="st1" width="4" height="3.35"/>
<rect x="158.52" y="84.6" class="st1" width="4.01" height="3.35"/>
<rect x="162.53" y="84.6" class="st1" width="4" height="3.35"/>
<rect x="74.45" y="91.42" class="st1" width="4" height="3.35"/>
<rect x="82.45" y="91.42" class="st1" width="4.01" height="3.35"/>
<rect x="90.46" y="91.42" class="st1" width="4" height="3.35"/>
<rect x="98.47" y="91.42" class="st1" width="4" height="3.35"/>
<rect x="106.47" y="91.42" class="st1" width="4.01" height="3.35"/>
<rect x="110.48" y="91.42" class="st1" width="4" height="3.35"/>
<rect x="114.48" y="91.42" class="st1" width="4" height="3.35"/>
<rect x="122.49" y="91.42" class="st1" width="4.01" height="3.35"/>
<rect x="126.49" y="91.42" class="st1" width="4" height="3.35"/>
<rect x="134.5" y="91.42" class="st1" width="4.01" height="3.35"/>
<rect x="142.51" y="91.42" class="st1" width="4" height="3.35"/>
<rect x="150.51" y="91.42" class="st1" width="4" height="3.35"/>
<rect x="154.52" y="91.42" class="st1" width="4" height="3.35"/>
<rect x="162.53" y="91.42" class="st1" width="4" height="3.35"/>
<rect x="162.53" y="98.24" class="st1" width="4" height="3.35"/>
<rect x="154.52" y="98.24" class="st1" width="4" height="3.35"/>
<rect x="146.51" y="98.24" class="st1" width="4.01" height="3.35"/>
<rect x="138.5" y="98.24" class="st1" width="4" height="3.35"/>
<rect x="130.5" y="98.24" class="st1" width="4" height="3.35"/>
<rect x="122.49" y="98.24" class="st1" width="4.01" height="3.35"/>
<rect x="114.48" y="98.24" class="st1" width="4" height="3.35"/>
<rect x="110.48" y="98.24" class="st1" width="4" height="3.35"/>
<rect x="102.47" y="98.24" class="st1" width="4" height="3.35"/>
<rect x="94.46" y="98.24" class="st1" width="4" height="3.35"/>
<rect x="82.45" y="98.24" class="st1" width="4.01" height="3.35"/>
<rect x="74.45" y="98.24" class="st1" width="4" height="3.35"/>
<rect x="74.45" y="105.06" class="st1" width="4" height="3.35"/>
<rect x="82.45" y="105.06" class="st1" width="4.01" height="3.35"/>
<rect x="86.46" y="105.06" class="st1" width="4" height="3.35"/>
<rect x="94.46" y="105.06" class="st1" width="4" height="3.35"/>
<rect x="98.47" y="105.06" class="st1" width="4" height="3.35"/>
<rect x="114.48" y="105.06" class="st1" width="4" height="3.35"/>
<rect x="118.49" y="105.06" class="st1" width="4" height="3.35"/>
<rect x="126.49" y="105.06" class="st1" width="4" height="3.35"/>
<rect x="134.5" y="105.06" class="st1" width="4.01" height="3.35"/>
<rect x="142.51" y="105.06" class="st1" width="4" height="3.35"/>
<rect x="150.51" y="105.06" class="st1" width="4" height="3.35"/>
<rect x="154.52" y="105.06" class="st1" width="4" height="3.35"/>
<rect x="158.52" y="105.06" class="st1" width="4.01" height="3.35"/>
<rect x="162.53" y="105.06" class="st1" width="4" height="3.35"/>
<rect x="74.45" y="111.88" class="st1" width="4" height="3.36"/>
<rect x="82.45" y="111.88" class="st1" width="4.01" height="3.36"/>
<rect x="90.46" y="111.88" class="st1" width="4" height="3.36"/>
<rect x="94.46" y="111.88" class="st1" width="4" height="3.36"/>
<rect x="102.47" y="111.88" class="st1" width="4" height="3.36"/>
<rect x="106.47" y="111.88" class="st1" width="4.01" height="3.36"/>
<rect x="110.48" y="111.88" class="st1" width="4" height="3.36"/>
<rect x="118.49" y="111.88" class="st1" width="4" height="3.36"/>
<rect x="122.49" y="111.88" class="st1" width="4.01" height="3.36"/>
<rect x="130.5" y="111.88" class="st1" width="4" height="3.36"/>
<rect x="138.5" y="111.88" class="st1" width="4" height="3.36"/>
<rect x="142.51" y="111.88" class="st1" width="4" height="3.36"/>
<rect x="146.51" y="111.88" class="st1" width="4.01" height="3.36"/>
<rect x="150.51" y="111.88" class="st1" width="4" height="3.36"/>
<rect x="158.52" y="111.88" class="st1" width="4.01" height="3.36"/>
<rect x="162.53" y="111.88" class="st1" width="4" height="3.36"/>
<rect x="74.45" y="118.71" class="st1" width="4" height="3.35"/>
<rect x="82.45" y="118.71" class="st1" width="4.01" height="3.35"/>
<rect x="90.46" y="118.71" class="st1" width="4" height="3.35"/>
<rect x="94.46" y="118.71" class="st1" width="4" height="3.35"/>
<rect x="102.47" y="118.71" class="st1" width="4" height="3.35"/>
<rect x="118.49" y="118.71" class="st1" width="4" height="3.35"/>
<rect x="122.49" y="118.71" class="st1" width="4.01" height="3.35"/>
<rect x="130.5" y="118.71" class="st1" width="4" height="3.35"/>
<rect x="138.5" y="118.71" class="st1" width="4" height="3.35"/>
<rect x="142.51" y="118.71" class="st1" width="4" height="3.35"/>
<rect x="150.51" y="118.71" class="st1" width="4" height="3.35"/>
<rect x="154.52" y="118.71" class="st1" width="4" height="3.35"/>
<rect x="162.53" y="118.71" class="st1" width="4" height="3.35"/>
</svg>
