<?xml version="1.0" encoding="utf-8"?>
<!-- Generator: Adobe Illustrator 24.1.2, SVG Export Plug-In . SVG Version: 6.00 Build 0)  -->
<svg version="1.1" id="Ebene_1" xmlns="http://www.w3.org/2000/svg" xmlns:xlink="http://www.w3.org/1999/xlink" x="0px" y="0px"
	 viewBox="0 0 241 241" style="enable-background:new 0 0 241 241;" xml:space="preserve">
<style type="text/css">
	.st0{display:none;fill:#FFFFFF;}
	.st1{fill:#f86f41;}
</style>
<path id="White" class="st0" d="M120.5,0.78c-66.2,0-120,53.8-120,120s53.8,120,120,120s120-53.8,120-120S186.7,0.78,120.5,0.78z
	 M120.5,233.78c-62.3,0-113-50.7-113-113s50.7-113,113-113s113,50.7,113,113S182.8,233.78,120.5,233.78z"/>

<g>
	<path class="st1" d="M177.6,95.14l-11.96,1.97c-0.45,0.08-0.85,0.26-1.19,0.51c-0.77,0.58-1.19,1.56-1.02,2.58
		c0.24,1.46,1.62,2.46,3.09,2.22l11.96-1.97c1.47-0.25,2.46-1.63,2.22-3.09C180.45,95.89,179.07,94.89,177.6,95.14z"/>
	<path class="st1" d="M150.48,83.2c1.35,0.62,2.95,0.03,3.57-1.31l5.08-11.01c0.62-1.35,0.03-2.95-1.32-3.56
		c-0.93-0.43-1.99-0.28-2.76,0.3c-0.34,0.26-0.62,0.6-0.81,1.01l-5.08,11.01C148.54,80.99,149.13,82.58,150.48,83.2z"/>
	<path class="st1" d="M156.82,91.51c0.9,1.18,2.59,1.41,3.77,0.51l10.4-7.92c1.18-0.9,1.41-2.59,0.51-3.77
		c-0.9-1.18-2.59-1.41-3.77-0.51l-10.4,7.92C156.14,88.64,155.92,90.33,156.82,91.51z"/>
	<path class="st1" d="M116.43,77.32v-7.36h9.86c2.23,0,4.03-1.81,4.03-4.03c0-2.23-1.81-4.03-4.03-4.03H98.96
		c-2.23,0-4.03,1.81-4.03,4.03c0,2.23,1.81,4.03,4.03,4.03h9.41v7.39c-11.08,0.92-21.16,5.37-29.14,12.22l-6.81-6.6
		c-1.6-1.55-4.15-1.51-5.7,0.09c-1.55,1.6-1.51,4.15,0.09,5.7l6.73,6.53c-7.6,8.95-12.21,20.51-12.21,33.14
		c0,28.28,23.01,51.29,51.29,51.29c28.28,0,51.29-23.01,51.29-51.29C163.92,101.42,142.94,79.28,116.43,77.32z M112.63,174.34
		c-25.32,0-45.92-20.6-45.92-45.92s20.6-45.92,45.92-45.92c25.32,0,45.92,20.6,45.92,45.92S137.95,174.34,112.63,174.34z"/>
	<path class="st1" d="M136.75,112.25l-21.81,13.53l0.38-25.99c0.02-1.49-1.17-2.71-2.65-2.73c-0.01,0-0.03,0-0.04,0
		c-1.47,0-2.67,1.18-2.69,2.65l-0.45,30.91c-0.01,0.98,0.51,1.9,1.36,2.38c0.41,0.23,0.87,0.35,1.32,0.35c0.49,0,0.98-0.13,1.42-0.4
		l25.98-16.13c1.26-0.78,1.65-2.44,0.87-3.7C139.66,111.86,138.01,111.47,136.75,112.25z"/>
</g>
</svg>
