<?xml version="1.0" encoding="utf-8"?>
<!-- Generator: Adobe Illustrator 24.1.2, SVG Export Plug-In . SVG Version: 6.00 Build 0)  -->
<svg version="1.1" id="Ebene_1" xmlns="http://www.w3.org/2000/svg" xmlns:xlink="http://www.w3.org/1999/xlink" x="0px" y="0px"
	 viewBox="0 0 240 240" style="enable-background:new 0 0 240 240;" xml:space="preserve">
<style type="text/css">
	.st0{fill:#f86f41;}
</style>

<g>
<path class="st0" d="M67,143.9c0,5.5,0.1,11.1,0,16.6c0,0,0,0.1,0,0.2c0,0.1-0.1,0.6,0,0.1c0,0.2-0.1,0.4-0.1,0.5
		c-0.1,0.4,0.3-0.5,0,0.1c-0.1,0.2-0.2,0.4-0.3,0.6c0.1-0.1,0.3-0.3,0,0c-0.1,0.1-0.3,0.3-0.5,0.4c0.3-0.3,0.1,0,0,0
		c-0.2,0.1-0.4,0.2-0.6,0.3c0.6-0.2-0.9,0.1-0.2,0.1c-0.4,0-0.9,0-1.4,0c-1.3,0-2.5,1.1-2.5,2.5c0,2.9,0,5.9,0,8.8
		c0,1.9,0,3.8,0,5.8c0,0.6,0,1.1,0,1.7c0,0.1,0,0.2,0,0.3c0,0,0,0,0,0c0,0.1,0,0.1,0,0.2c0-0.3,0-0.3,0,0c0,0.1,0,0.1-0.1,0.2
		c0.1-0.3,0.1-0.3,0,0c0,0,0,0.1-0.1,0.1c-0.1,0.1-0.1,0.1,0.1-0.1c0,0-0.1,0.1-0.1,0.1c0.2-0.1,0.2-0.2,0.1-0.1
		c-0.1,0.1-0.5,0.3-0.1,0.1c-0.1,0-0.3,0.1-0.4,0.1c0.4-0.1-0.2,0-0.3,0c-0.8,0-1.6,0-2.4,0c-1,0-2.1,0-3.1,0c-0.3,0-0.6,0-0.9,0
		c-0.1,0-0.2,0-0.3,0c-0.1,0-0.5,0-0.2,0c0.4,0-0.3-0.1-0.3-0.1c0.6,0.2,0,0,0,0c-0.1,0-0.1-0.1-0.2-0.1c0.2,0.2,0.2,0.2,0,0
		c0,0,0,0.1,0.1,0.1c0.1,0.1,0.1,0.1-0.1-0.1c0,0-0.2-0.3,0,0c0-0.1-0.1-0.7-0.1-0.2c0-0.1,0-0.2,0-0.3c0-0.4,0-0.7,0-1.1
		c0-1.7,0-3.4,0-5.1c0-3.5,0-6.9,0-10.4c0-1.3-1.1-2.5-2.5-2.5c-0.3,0-0.6,0-0.9,0c0,0-0.7-0.1-0.3,0c0.4,0.1-0.3-0.1-0.3-0.1
		c-0.1,0-0.5-0.2,0,0c-0.2-0.1-0.4-0.2-0.6-0.3c-0.4-0.2-0.1-0.1,0,0c-0.1-0.1-0.3-0.2-0.4-0.4c-0.1-0.1-0.3-0.5-0.1-0.1
		c-0.1-0.1-0.2-0.2-0.2-0.4c-0.1-0.1-0.1-0.2-0.2-0.4c0.2,0.4,0,0,0-0.1c0-0.1-0.1-0.6,0-0.1c0-0.1,0-0.3,0-0.5c0-0.9,0-1.7,0-2.6
		c0-3.8,0-7.6,0-11.3c0-0.9,0-1.8,0-2.7c0-0.1,0.1-0.8,0-0.2c0-0.2,0.3-0.9,0.1-0.4c0.1-0.2,0.2-0.3,0.2-0.5c0-0.1,0.3-0.5,0-0.1
		c0.1-0.1,0.2-0.2,0.3-0.3c0.1-0.1,0.6-0.4,0.2-0.2c0.1-0.1,0.2-0.2,0.4-0.2c0,0,0.6-0.3,0.3-0.1c-0.3,0.1,1-0.2,0.3-0.1
		c0.2,0,0.4,0,0.6,0c3.2,0,6.5,0,9.7,0c1.7,0,3.3,0,5,0c0.1,0,0.3,0,0.4,0c0.1,0,0.2,0,0.3,0c0.7,0-0.3-0.1,0.1,0
		c0.1,0,0.7,0.2,0.4,0.1c-0.3-0.1,0.3,0.1,0.3,0.1c0.1,0.1,0.6,0.4,0.2,0.1c0.1,0.1,0.2,0.2,0.3,0.3c0.1,0.1,0.4,0.6,0.2,0.2
		c0.1,0.1,0.2,0.2,0.2,0.4c0.1,0.2,0.2,0.6,0.1,0.2c0,0.2,0.1,0.3,0.1,0.5c0,0.2,0,0.1,0-0.1C67,143.6,67,143.8,67,143.9
		c0,1.3,1.1,2.5,2.5,2.5c1.3-0.1,2.5-1.1,2.5-2.5c-0.1-4-3.2-7.1-7.2-7.2c-1.1,0-2.2,0-3.3,0c-3.8,0-7.6,0-11.4,0
		c-2.7,0-5.2,1.1-6.6,3.5c-1,1.6-1.1,3.3-1.1,5.1c0,4,0,8,0,12c0,1.3-0.1,2.6,0,3.9c0.3,2.2,1.4,4.2,3.3,5.4
		c1.5,0.9,3.1,1.1,4.7,1.1c-0.8-0.8-1.6-1.6-2.5-2.5c0,3.2,0,6.4,0,9.6c0,1.9,0,3.8,0,5.7c0,2,0.2,3.9,1.7,5.4
		c1.9,1.8,4.3,1.6,6.7,1.6c1.1,0,2.1,0,3.2,0c0.8,0,1.7,0,2.5-0.2c2.8-0.7,4.3-3.2,4.3-6c0-1.6,0-3.3,0-4.9c0-3.7,0-7.5,0-11.2
		c-0.8,0.8-1.6,1.6-2.5,2.5c1.4,0,2.8-0.1,4.1-0.8c1.5-0.7,2.7-2,3.4-3.5c0.7-1.5,0.7-3,0.7-4.6c0-3.9,0-7.8,0-11.6
		c0-1.1,0-2.3,0-3.4c0-1.3-1.1-2.5-2.5-2.5C68.1,141.5,67,142.5,67,143.9z"/>
<path class="st0" d="M62.4,124.3c0,0.2,0,0.5,0,0.7c0,0.1-0.1,0.5,0,0c-0.1,0.4-0.1,0.7-0.3,1.1c0,0.1-0.1,0.3-0.1,0.4
		c0.2-0.4,0-0.1,0,0c-0.2,0.4-0.4,0.7-0.7,1.1c0.3-0.4-0.3,0.3-0.4,0.4c-0.2,0.2-0.5,0.4-0.7,0.6c0.4-0.3,0,0-0.1,0
		c-0.1,0.1-0.3,0.2-0.5,0.3c-0.1,0.1-0.3,0.1-0.4,0.2c-0.5,0.3,0.3-0.1-0.2,0.1c-0.3,0.1-0.7,0.2-1.1,0.3c-0.5,0.1-0.1,0,0,0
		c-0.2,0-0.4,0-0.6,0c-0.3,0-0.7,0-1,0c-0.7,0,0.3,0.1-0.1,0c-0.2,0-0.5-0.1-0.8-0.2c-0.2,0-0.9-0.3-0.4-0.1
		c-0.3-0.1-0.6-0.3-0.9-0.5c-0.1-0.1-0.2-0.2-0.4-0.2c0.4,0.3-0.1-0.1-0.2-0.1c-0.3-0.2-0.5-0.5-0.7-0.8c-0.4-0.5,0.1,0.2-0.1-0.1
		c-0.1-0.1-0.2-0.3-0.3-0.4c-0.1-0.1-0.1-0.2-0.2-0.4c0,0-0.3-0.6-0.1-0.3c0.1,0.3-0.1-0.3-0.1-0.3c0-0.1-0.1-0.3-0.1-0.4
		c0-0.2-0.1-0.4-0.1-0.5c0-0.2,0-0.1,0,0.1c0-0.1,0-0.2,0-0.3c0-0.3,0-0.7,0-1c0,0,0.1-0.7,0-0.3c-0.1,0.4,0.1-0.3,0.1-0.3
		c0.1-0.3,0.2-0.6,0.3-0.9c0.1-0.4-0.3,0.5,0-0.1c0.1-0.2,0.2-0.4,0.3-0.6c0.1-0.1,0.2-0.2,0.2-0.4c0.3-0.6-0.3,0.3,0.1-0.2
		c0.2-0.2,0.4-0.4,0.6-0.6c0.1-0.1,0.3-0.3,0.5-0.4c-0.1,0.1-0.4,0.2,0,0c0.3-0.2,0.7-0.4,1-0.6c0.4-0.2-0.5,0.2,0.1,0
		c0.1,0,0.3-0.1,0.4-0.1c0.2,0,0.3-0.1,0.5-0.1c0.1,0,0.6-0.1,0.1,0c0.3,0,0.7,0,1,0c0.2,0,0.4,0,0.6,0c0.5,0-0.3-0.1,0.2,0
		c0.4,0.1,0.7,0.2,1.1,0.3c0.6,0.2-0.4-0.2,0.2,0.1c0.2,0.1,0.4,0.2,0.6,0.3c0.1,0.1,0.2,0.2,0.4,0.2c0.5,0.3-0.2-0.2,0.2,0.1
		c0.3,0.3,0.6,0.6,0.9,0.9c0.1,0.1,0.3,0.4,0,0c0.1,0.2,0.2,0.3,0.3,0.5c0.1,0.1,0.2,0.3,0.3,0.5c0,0.1,0.1,0.2,0.1,0.3
		c-0.1-0.2-0.1-0.2,0-0.1c0.1,0.4,0.2,0.8,0.3,1.2c0.1,0.5,0,0.1,0,0C62.4,123.7,62.4,124,62.4,124.3c0,1.3,1.1,2.5,2.5,2.5
		c1.3-0.1,2.5-1.1,2.5-2.5c-0.1-4.4-2.8-8.2-7-9.7c-3.9-1.4-8.5-0.1-11.1,3.1c-2.7,3.3-3.2,8.1-1,11.9c2.2,3.7,6.6,5.6,10.9,4.8
		c4.8-0.9,8.2-5.3,8.3-10.1c0-1.3-1.2-2.5-2.5-2.5C63.5,121.9,62.4,123,62.4,124.3z"/>
<path class="st0" d="M105.3,144.5c1.6,6.8,3.3,13.5,4.9,20.3c0,0,0,0.1,0,0.1c0,0,0-0.2,0-0.2c0,0.1,0,0.3,0,0.4c0-0.3,0-0.3,0,0
		c0,0.1-0.3,0.7,0,0.2c0,0.1-0.4,0.7-0.3,0.5c0.2-0.3-0.3,0.3-0.3,0.2c-0.1,0.1-0.2,0.2-0.3,0.3c0.2-0.2,0.2-0.1-0.1,0
		c-0.2,0.1-0.4,0.2-0.6,0.3c0.5-0.2-0.2,0-0.3,0c-0.6,0.2,0.4,0-0.2,0c-0.1,0-0.2,0-0.4,0c-0.5,0-1,0-1.6,0c-1.5,0-2.3,1.1-2.5,2.5
		c-0.3,2.3-0.6,4.6-0.9,6.9c-0.2,1.4-0.4,2.9-0.6,4.3c0,0.4-0.1,0.8-0.1,1.2c0,0,0,0.1,0,0.1c0,0.2-0.1,0.4,0,0c0,0.1,0,0.2-0.1,0.3
		c-0.2,0.3,0.2-0.3,0,0c-0.3,0.4,0,0.1,0,0.1c0,0-0.4,0.4,0,0c-0.1,0.1-0.2,0.1-0.3,0.2c-0.3,0.2,0.3-0.2,0,0c-0.1,0-0.2,0-0.3,0.1
		c0.4-0.1,0,0-0.2,0c-0.6,0-1.3,0-1.9,0c-0.8,0-1.6,0-2.4,0c-0.3,0-0.5,0-0.8,0c-0.1,0-0.6,0-0.4,0c0.3,0-0.6-0.3-0.1,0
		c-0.1-0.1-0.2-0.1-0.4-0.2c0.3,0.2,0,0,0,0c0,0,0.3,0.3,0.1,0.1c0,0-0.3-0.4-0.1-0.2c0.1,0.3,0-0.1,0-0.1c0-0.2-0.1-0.3,0-0.1
		c0,0.1,0,0.1,0,0c0-0.2,0-0.5-0.1-0.7c-0.2-1.3-0.3-2.6-0.5-3.8c-0.3-2.7-0.7-5.4-1.1-8.1c-0.2-1.3-1-2.5-2.5-2.5c-0.3,0-0.7,0-1,0
		c-0.2,0-0.4,0-0.6,0c-0.1,0-0.7,0-0.4,0c0.4,0.1-0.3-0.1-0.3-0.1c-0.1,0-0.3-0.1-0.4-0.1c0.4,0.1-0.3-0.2-0.4-0.2
		c-0.6-0.3,0.2,0.2-0.1-0.1c-0.1-0.1-0.3-0.2-0.4-0.4c-0.1-0.1-0.3-0.4,0,0c-0.1-0.2-0.2-0.4-0.3-0.6c0.2,0.5,0-0.6,0,0
		c0-0.1,0-0.3,0-0.4c0,0.1-0.1,0.5,0,0c0,0,0-0.1,0-0.2c0.1-0.3,0.2-0.7,0.2-1c0.8-3.3,1.6-6.6,2.4-10c0.7-2.9,1.4-5.9,2.1-8.8
		c0.1-0.3,0.1-0.6,0.2-0.9c0.1-0.3,0.2-0.6,0.3-0.9c-0.2,0.4,0.2-0.4,0.3-0.5c0.1-0.1,0.2-0.3,0.3-0.4c-0.1,0.1-0.3,0.3,0,0
		c0.1-0.1,0.2-0.2,0.3-0.3c0.3-0.4-0.3,0.1,0.1-0.1c0.1-0.1,0.2-0.1,0.3-0.2c-0.4,0.2-0.1,0,0.1,0c0.1,0,0.6-0.1,0.1,0
		c0.1,0,0.3,0,0.4,0c0.1,0,0.2,0,0.3,0c0.7,0,1.4,0,2.1,0c2,0,3.9,0,5.9,0c0.2,0,0.3,0,0.5,0c0.1,0,0.2,0,0.2,0c0.6,0-0.4-0.1,0.2,0
		c0.1,0,0.3,0.1,0.4,0.1c-0.4-0.1-0.1,0,0.1,0.1c0.1,0.1,0.2,0.1,0.3,0.2c-0.5-0.3,0,0,0.1,0.1c0.1,0.1,0.2,0.2,0.3,0.3
		c-0.3-0.4,0,0,0.1,0.2c0.1,0.1,0.2,0.3,0.2,0.5c0,0.1,0.1,0.2,0.1,0.3c-0.1-0.2-0.1-0.2,0-0.1C105,143.7,105.2,144.1,105.3,144.5
		c0.3,1.3,1.8,2.1,3.1,1.7c1.3-0.4,2-1.7,1.7-3.1c-0.8-3.5-3.3-6.5-7.1-6.6c-1.5,0-2.9,0-4.4,0c-1.5,0-2.9,0-4.4,0
		c-3.8,0.1-6.2,3.1-7.1,6.6c-1.6,6.3-3,12.6-4.5,19c-0.5,1.9-0.8,3.8,0.2,5.7c0.9,1.8,2.7,3.1,4.7,3.7c1.2,0.3,2.4,0.3,3.7,0.3
		c-0.8-0.8-1.6-1.6-2.5-2.5c0.3,2.6,0.7,5.1,1,7.7c0.2,1.4,0.4,2.8,0.5,4.2c0,0.3,0.1,0.6,0.1,0.9c0.2,1.8,0.9,3.3,2.4,4.4
		c1.6,1.2,3.5,1.1,5.4,1.1c1.5,0,3.1,0.2,4.6-0.1c1.6-0.3,3-1.4,3.7-2.8c0.5-0.9,0.6-1.8,0.7-2.9c0.1-1.1,0.3-2.3,0.4-3.4
		c0.4-3,0.8-6,1.2-9c-0.8,0.8-1.6,1.6-2.5,2.5c1.4,0,2.8,0.1,4.1-0.4c2.2-0.8,4.1-2.6,4.7-4.9c0.4-1.7-0.1-3.4-0.5-5.1
		c-1.1-4.7-2.2-9.4-3.4-14.1c-0.3-1.4-0.7-2.7-1-4.1c-0.3-1.3-1.8-2.1-3.1-1.7C105.7,141.9,104.9,143.2,105.3,144.5z"/>
<path class="st0" d="M103.8,124.3c0,0.2,0,0.5,0,0.7c0,0.1-0.1,0.5,0,0c-0.1,0.4-0.1,0.7-0.3,1.1c0,0.1-0.1,0.3-0.1,0.4
		c0.2-0.4,0-0.1,0,0c-0.2,0.4-0.4,0.7-0.7,1.1c0.3-0.4-0.3,0.3-0.4,0.4c-0.2,0.2-0.5,0.4-0.7,0.6c0.4-0.3,0,0-0.1,0
		c-0.1,0.1-0.3,0.2-0.5,0.3c-0.1,0.1-0.3,0.1-0.4,0.2c-0.5,0.3,0.3-0.1-0.2,0.1c-0.3,0.1-0.7,0.2-1.1,0.3c-0.5,0.1-0.1,0,0,0
		c-0.2,0-0.4,0-0.6,0c-0.3,0-0.7,0-1,0c-0.7,0,0.3,0.1-0.1,0c-0.2,0-0.5-0.1-0.8-0.2c-0.2,0-0.9-0.3-0.4-0.1
		c-0.3-0.1-0.6-0.3-0.9-0.5c-0.1-0.1-0.2-0.2-0.4-0.2c0.4,0.3-0.1-0.1-0.2-0.1c-0.3-0.2-0.5-0.5-0.7-0.8c-0.4-0.5,0.1,0.2-0.1-0.1
		c-0.1-0.1-0.2-0.3-0.3-0.4c-0.1-0.1-0.1-0.2-0.2-0.4c0,0-0.3-0.6-0.1-0.3c0.1,0.3-0.1-0.3-0.1-0.3c0-0.1-0.1-0.3-0.1-0.4
		c0-0.2-0.1-0.4-0.1-0.5c0-0.2,0-0.1,0,0.1c0-0.1,0-0.2,0-0.3c0-0.3,0-0.7,0-1c0,0,0.1-0.7,0-0.3c-0.1,0.4,0.1-0.3,0.1-0.3
		c0.1-0.3,0.2-0.6,0.3-0.9c0.1-0.4-0.3,0.5,0-0.1c0.1-0.2,0.2-0.4,0.3-0.6c0.1-0.1,0.2-0.2,0.2-0.4c0.3-0.6-0.3,0.3,0.1-0.2
		c0.2-0.2,0.4-0.4,0.6-0.6c0.1-0.1,0.3-0.3,0.5-0.4c-0.1,0.1-0.4,0.2,0,0c0.3-0.2,0.7-0.4,1-0.6c0.4-0.2-0.5,0.2,0.1,0
		c0.1,0,0.3-0.1,0.4-0.1c0.2,0,0.3-0.1,0.5-0.1c0.1,0,0.6-0.1,0.1,0c0.3,0,0.7,0,1,0c0.2,0,0.4,0,0.6,0c0.5,0-0.3-0.1,0.2,0
		c0.4,0.1,0.7,0.2,1.1,0.3c0.6,0.2-0.4-0.2,0.2,0.1c0.2,0.1,0.4,0.2,0.6,0.3c0.1,0.1,0.2,0.2,0.4,0.2c0.5,0.3-0.2-0.2,0.2,0.1
		c0.3,0.3,0.6,0.6,0.9,0.9c0.1,0.1,0.3,0.4,0,0c0.1,0.2,0.2,0.3,0.3,0.5c0.1,0.1,0.2,0.3,0.3,0.5c0,0.1,0.1,0.2,0.1,0.3
		c-0.1-0.2-0.1-0.2,0-0.1c0.1,0.4,0.2,0.8,0.3,1.2c0.1,0.5,0,0.1,0,0C103.8,123.7,103.8,124,103.8,124.3c0,1.3,1.1,2.5,2.5,2.5
		c1.3-0.1,2.5-1.1,2.5-2.5c-0.1-4.4-2.8-8.2-7-9.7c-3.9-1.4-8.5-0.1-11.1,3.1c-2.7,3.3-3.2,8.1-1,11.9c2.2,3.7,6.6,5.6,10.9,4.8
		c4.8-0.9,8.2-5.3,8.3-10.1c0-1.3-1.2-2.5-2.5-2.5C105,121.9,103.9,123,103.8,124.3z"/>
<path class="st0" d="M150,143.9c0,5.5,0.1,11.1,0,16.6c0,0,0,0.1,0,0.2c0,0.1-0.1,0.6,0,0.1c0,0.2-0.1,0.4-0.1,0.5
		c-0.1,0.4,0.3-0.5,0,0.1c-0.1,0.2-0.2,0.4-0.3,0.6c0.1-0.1,0.3-0.3,0,0c-0.1,0.1-0.3,0.3-0.5,0.4c0.3-0.3,0.1,0,0,0
		c-0.2,0.1-0.4,0.2-0.6,0.3c0.6-0.2-0.9,0.1-0.2,0.1c-0.4,0-0.9,0-1.4,0c-1.3,0-2.5,1.1-2.5,2.5c0,2.9,0,5.9,0,8.8
		c0,1.9,0,3.8,0,5.8c0,0.6,0,1.1,0,1.7c0,0.1,0,0.2,0,0.3c0,0,0,0,0,0c0,0.1,0,0.1,0,0.2c0-0.3,0-0.3,0,0c0,0.1,0,0.1-0.1,0.2
		c0.1-0.3,0.1-0.3,0,0c0,0,0,0.1-0.1,0.1c-0.1,0.1-0.1,0.1,0.1-0.1c0,0-0.1,0.1-0.1,0.1c0.2-0.1,0.2-0.2,0.1-0.1
		c-0.1,0.1-0.5,0.3-0.1,0.1c-0.1,0-0.3,0.1-0.4,0.1c0.4-0.1-0.2,0-0.3,0c-0.8,0-1.6,0-2.4,0c-1,0-2.1,0-3.1,0c-0.3,0-0.6,0-0.9,0
		c-0.1,0-0.2,0-0.3,0c-0.1,0-0.5,0-0.2,0c0.4,0-0.3-0.1-0.3-0.1c0.6,0.2,0,0,0,0c-0.1,0-0.1-0.1-0.2-0.1c0.2,0.2,0.2,0.2,0,0
		c0,0,0,0.1,0.1,0.1c0.1,0.1,0.1,0.1-0.1-0.1c0,0-0.2-0.3,0,0c0-0.1-0.1-0.7-0.1-0.2c0-0.1,0-0.2,0-0.3c0-0.4,0-0.7,0-1.1
		c0-1.7,0-3.4,0-5.1c0-3.5,0-6.9,0-10.4c0-1.3-1.1-2.5-2.5-2.5c-0.3,0-0.6,0-0.9,0c0,0-0.7-0.1-0.3,0c0.4,0.1-0.3-0.1-0.3-0.1
		c-0.1,0-0.5-0.2,0,0c-0.2-0.1-0.4-0.2-0.6-0.3c-0.4-0.2-0.1-0.1,0,0c-0.1-0.1-0.3-0.2-0.4-0.4c-0.1-0.1-0.3-0.5-0.1-0.1
		c-0.1-0.1-0.2-0.2-0.2-0.4c-0.1-0.1-0.1-0.2-0.2-0.4c0.2,0.4,0,0,0-0.1c0-0.1-0.1-0.6,0-0.1c0-0.1,0-0.3,0-0.5c0-0.9,0-1.7,0-2.6
		c0-3.8,0-7.6,0-11.3c0-0.9,0-1.8,0-2.7c0-0.1,0.1-0.8,0-0.2c0-0.2,0.3-0.9,0.1-0.4c0.1-0.2,0.2-0.3,0.2-0.5c0-0.1,0.3-0.5,0-0.1
		c0.1-0.1,0.2-0.2,0.3-0.3c0.1-0.1,0.6-0.4,0.2-0.2c0.1-0.1,0.2-0.2,0.4-0.2c0,0,0.6-0.3,0.3-0.1c-0.3,0.1,1-0.2,0.3-0.1
		c0.2,0,0.4,0,0.6,0c3.2,0,6.5,0,9.7,0c1.7,0,3.3,0,5,0c0.1,0,0.3,0,0.4,0c0.1,0,0.2,0,0.3,0c0.7,0-0.3-0.1,0.1,0
		c0.1,0,0.7,0.2,0.4,0.1c-0.3-0.1,0.3,0.1,0.3,0.1c0.1,0.1,0.6,0.4,0.2,0.1c0.1,0.1,0.2,0.2,0.3,0.3c0.1,0.1,0.4,0.6,0.2,0.2
		c0.1,0.1,0.2,0.2,0.2,0.4c0.1,0.2,0.2,0.6,0.1,0.2c0,0.2,0.1,0.3,0.1,0.5c0,0.2,0,0.1,0-0.1C150,143.6,150,143.8,150,143.9
		c0,1.3,1.1,2.5,2.5,2.5c1.3-0.1,2.5-1.1,2.5-2.5c-0.1-4-3.2-7.1-7.2-7.2c-1.1,0-2.2,0-3.3,0c-3.8,0-7.6,0-11.4,0
		c-2.7,0-5.2,1.1-6.6,3.5c-1,1.6-1.1,3.3-1.1,5.1c0,4,0,8,0,12c0,1.3-0.1,2.6,0,3.9c0.3,2.2,1.4,4.2,3.3,5.4
		c1.5,0.9,3.1,1.1,4.7,1.1c-0.8-0.8-1.6-1.6-2.5-2.5c0,3.2,0,6.4,0,9.6c0,1.9,0,3.8,0,5.7c0,2,0.2,3.9,1.7,5.4
		c1.9,1.8,4.3,1.6,6.7,1.6c1.1,0,2.1,0,3.2,0c0.8,0,1.7,0,2.5-0.2c2.8-0.7,4.3-3.2,4.3-6c0-1.6,0-3.3,0-4.9c0-3.7,0-7.5,0-11.2
		c-0.8,0.8-1.6,1.6-2.5,2.5c1.4,0,2.8-0.1,4.1-0.8c1.5-0.7,2.7-2,3.4-3.5c0.7-1.5,0.7-3,0.7-4.6c0-3.9,0-7.8,0-11.6
		c0-1.1,0-2.3,0-3.4c0-1.3-1.1-2.5-2.5-2.5C151.2,141.5,150,142.5,150,143.9z"/>
<path class="st0" d="M145.3,124.3c0,0.2,0,0.5,0,0.7c0,0.1-0.1,0.5,0,0c-0.1,0.4-0.1,0.7-0.3,1.1c0,0.1-0.1,0.3-0.1,0.4
		c0.2-0.4,0-0.1,0,0c-0.2,0.4-0.4,0.7-0.7,1.1c0.3-0.4-0.3,0.3-0.4,0.4c-0.2,0.2-0.5,0.4-0.7,0.6c0.4-0.3,0,0-0.1,0
		c-0.1,0.1-0.3,0.2-0.5,0.3c-0.1,0.1-0.3,0.1-0.4,0.2c-0.5,0.3,0.3-0.1-0.2,0.1c-0.3,0.1-0.7,0.2-1.1,0.3c-0.5,0.1-0.1,0,0,0
		c-0.2,0-0.4,0-0.6,0c-0.3,0-0.7,0-1,0c-0.7,0,0.3,0.1-0.1,0c-0.2,0-0.5-0.1-0.8-0.2c-0.2,0-0.9-0.3-0.4-0.1
		c-0.3-0.1-0.6-0.3-0.9-0.5c-0.1-0.1-0.2-0.2-0.4-0.2c0.4,0.3-0.1-0.1-0.2-0.1c-0.3-0.2-0.5-0.5-0.7-0.8c-0.4-0.5,0.1,0.2-0.1-0.1
		c-0.1-0.1-0.2-0.3-0.3-0.4c-0.1-0.1-0.1-0.2-0.2-0.4c0,0-0.3-0.6-0.1-0.3c0.1,0.3-0.1-0.3-0.1-0.3c0-0.1-0.1-0.3-0.1-0.4
		c0-0.2-0.1-0.4-0.1-0.5c0-0.2,0-0.1,0,0.1c0-0.1,0-0.2,0-0.3c0-0.3,0-0.7,0-1c0,0,0.1-0.7,0-0.3c-0.1,0.4,0.1-0.3,0.1-0.3
		c0.1-0.3,0.2-0.6,0.3-0.9c0.1-0.4-0.3,0.5,0-0.1c0.1-0.2,0.2-0.4,0.3-0.6c0.1-0.1,0.2-0.2,0.2-0.4c0.3-0.6-0.3,0.3,0.1-0.2
		c0.2-0.2,0.4-0.4,0.6-0.6c0.1-0.1,0.3-0.3,0.5-0.4c-0.1,0.1-0.4,0.2,0,0c0.3-0.2,0.7-0.4,1-0.6c0.4-0.2-0.5,0.2,0.1,0
		c0.1,0,0.3-0.1,0.4-0.1c0.2,0,0.3-0.1,0.5-0.1c0.1,0,0.6-0.1,0.1,0c0.3,0,0.7,0,1,0c0.2,0,0.4,0,0.6,0c0.5,0-0.3-0.1,0.2,0
		c0.4,0.1,0.7,0.2,1.1,0.3c0.6,0.2-0.4-0.2,0.2,0.1c0.2,0.1,0.4,0.2,0.6,0.3c0.1,0.1,0.2,0.2,0.4,0.2c0.5,0.3-0.2-0.2,0.2,0.1
		c0.3,0.3,0.6,0.6,0.9,0.9c0.1,0.1,0.3,0.4,0,0c0.1,0.2,0.2,0.3,0.3,0.5c0.1,0.1,0.2,0.3,0.3,0.5c0,0.1,0.1,0.2,0.1,0.3
		c-0.1-0.2-0.1-0.2,0-0.1c0.1,0.4,0.2,0.8,0.3,1.2c0.1,0.5,0,0.1,0,0C145.3,123.7,145.3,124,145.3,124.3c0,1.3,1.1,2.5,2.5,2.5
		c1.3-0.1,2.5-1.1,2.5-2.5c-0.1-4.4-2.8-8.2-7-9.7c-3.9-1.4-8.5-0.1-11.1,3.1c-2.7,3.3-3.2,8.1-1,11.9c2.2,3.7,6.6,5.6,10.9,4.8
		c4.8-0.9,8.2-5.3,8.3-10.1c0-1.3-1.2-2.5-2.5-2.5C146.4,121.9,145.3,123,145.3,124.3z"/>
<path class="st0" d="M188.1,144.5c1.6,6.8,3.3,13.5,4.9,20.3c0,0,0,0.1,0,0.1c0,0,0-0.2,0-0.2c0,0.1,0,0.3,0,0.4c0-0.3,0-0.3,0,0
		c0,0.1-0.3,0.7,0,0.2c0,0.1-0.4,0.7-0.3,0.5c0.2-0.3-0.3,0.3-0.3,0.2c-0.1,0.1-0.2,0.2-0.3,0.3c0.2-0.2,0.2-0.1-0.1,0
		c-0.2,0.1-0.4,0.2-0.6,0.3c0.5-0.2-0.2,0-0.3,0c-0.6,0.2,0.4,0-0.2,0c-0.1,0-0.2,0-0.4,0c-0.5,0-1,0-1.6,0c-1.5,0-2.3,1.1-2.5,2.5
		c-0.3,2.3-0.6,4.6-0.9,6.9c-0.2,1.4-0.4,2.9-0.6,4.3c0,0.4-0.1,0.8-0.1,1.2c0,0,0,0.1,0,0.1c0,0.2-0.1,0.4,0,0c0,0.1,0,0.2-0.1,0.3
		c-0.2,0.3,0.2-0.3,0,0c-0.3,0.4,0,0.1,0,0.1c0,0-0.4,0.4,0,0c-0.1,0.1-0.2,0.1-0.3,0.2c-0.3,0.2,0.3-0.2,0,0c-0.1,0-0.2,0-0.3,0.1
		c0.4-0.1,0,0-0.2,0c-0.6,0-1.3,0-1.9,0c-0.8,0-1.6,0-2.4,0c-0.3,0-0.5,0-0.8,0c-0.1,0-0.6,0-0.4,0c0.3,0-0.6-0.3-0.1,0
		c-0.1-0.1-0.2-0.1-0.4-0.2c0.3,0.2,0,0,0,0c0,0,0.3,0.3,0.1,0.1c0,0-0.3-0.4-0.1-0.2c0.1,0.3,0-0.1,0-0.1c0-0.2-0.1-0.3,0-0.1
		c0,0.1,0,0.1,0,0c0-0.2,0-0.5-0.1-0.7c-0.2-1.3-0.3-2.6-0.5-3.8c-0.3-2.7-0.7-5.4-1.1-8.1c-0.2-1.3-1-2.5-2.5-2.5c-0.3,0-0.7,0-1,0
		c-0.2,0-0.4,0-0.6,0c-0.1,0-0.7,0-0.4,0c0.4,0.1-0.3-0.1-0.3-0.1c-0.1,0-0.3-0.1-0.4-0.1c0.4,0.1-0.3-0.2-0.4-0.2
		c-0.6-0.3,0.2,0.2-0.1-0.1c-0.1-0.1-0.3-0.2-0.4-0.4c-0.1-0.1-0.3-0.4,0,0c-0.1-0.2-0.2-0.4-0.3-0.6c0.2,0.5,0-0.6,0,0
		c0-0.1,0-0.3,0-0.4c0,0.1-0.1,0.5,0,0c0,0,0-0.1,0-0.2c0.1-0.3,0.2-0.7,0.2-1c0.8-3.3,1.6-6.6,2.4-10c0.7-2.9,1.4-5.9,2.1-8.8
		c0.1-0.3,0.1-0.6,0.2-0.9c0.1-0.3,0.2-0.6,0.3-0.9c-0.2,0.4,0.2-0.4,0.3-0.5c0.1-0.1,0.2-0.3,0.3-0.4c-0.1,0.1-0.3,0.3,0,0
		c0.1-0.1,0.2-0.2,0.3-0.3c0.3-0.4-0.3,0.1,0.1-0.1c0.1-0.1,0.2-0.1,0.3-0.2c-0.4,0.2-0.1,0,0.1,0c0.1,0,0.6-0.1,0.1,0
		c0.1,0,0.3,0,0.4,0c0.1,0,0.2,0,0.3,0c0.7,0,1.4,0,2.1,0c2,0,3.9,0,5.9,0c0.2,0,0.3,0,0.5,0c0.1,0,0.2,0,0.2,0c0.6,0-0.4-0.1,0.2,0
		c0.1,0,0.3,0.1,0.4,0.1c-0.4-0.1-0.1,0,0.1,0.1c0.1,0.1,0.2,0.1,0.3,0.2c-0.5-0.3,0,0,0.1,0.1s0.2,0.2,0.3,0.3
		c-0.3-0.4,0,0,0.1,0.2c0.1,0.1,0.2,0.3,0.2,0.5c0,0.1,0.1,0.2,0.1,0.3c-0.1-0.2-0.1-0.2,0-0.1C187.9,143.7,188,144.1,188.1,144.5
		c0.3,1.3,1.8,2.1,3.1,1.7c1.3-0.4,2-1.7,1.7-3.1c-0.8-3.5-3.3-6.5-7.1-6.6c-1.5,0-2.9,0-4.4,0c-1.5,0-2.9,0-4.4,0
		c-3.8,0.1-6.2,3.1-7.1,6.6c-1.6,6.3-3,12.6-4.5,19c-0.5,1.9-0.8,3.8,0.2,5.7c0.9,1.8,2.7,3.1,4.7,3.7c1.2,0.3,2.4,0.3,3.7,0.3
		c-0.8-0.8-1.6-1.6-2.5-2.5c0.3,2.6,0.7,5.1,1,7.7c0.2,1.4,0.4,2.8,0.5,4.2c0,0.3,0.1,0.6,0.1,0.9c0.2,1.8,0.9,3.3,2.4,4.4
		c1.6,1.2,3.5,1.1,5.4,1.1c1.5,0,3.1,0.2,4.6-0.1c1.6-0.3,3-1.4,3.7-2.8c0.5-0.9,0.6-1.8,0.7-2.9c0.1-1.1,0.3-2.3,0.4-3.4
		c0.4-3,0.8-6,1.2-9c-0.8,0.8-1.6,1.6-2.5,2.5c1.4,0,2.8,0.1,4.1-0.4c2.2-0.8,4.1-2.6,4.7-4.9c0.4-1.7-0.1-3.4-0.5-5.1
		c-1.1-4.7-2.2-9.4-3.4-14.1c-0.3-1.4-0.7-2.7-1-4.1c-0.3-1.3-1.8-2.1-3.1-1.7C188.5,141.9,187.8,143.2,188.1,144.5z"/>
<path class="st0" d="M186.7,124.3c0,0.2,0,0.5,0,0.7c0,0.1-0.1,0.5,0,0c-0.1,0.4-0.1,0.7-0.3,1.1c0,0.1-0.1,0.3-0.1,0.4
		c0.2-0.4,0-0.1,0,0c-0.2,0.4-0.4,0.7-0.7,1.1c0.3-0.4-0.3,0.3-0.4,0.4c-0.2,0.2-0.5,0.4-0.7,0.6c0.4-0.3,0,0-0.1,0
		c-0.1,0.1-0.3,0.2-0.5,0.3c-0.1,0.1-0.3,0.1-0.4,0.2c-0.5,0.3,0.3-0.1-0.2,0.1c-0.3,0.1-0.7,0.2-1.1,0.3c-0.5,0.1-0.1,0,0,0
		c-0.2,0-0.4,0-0.6,0c-0.3,0-0.7,0-1,0c-0.7,0,0.3,0.1-0.1,0c-0.2,0-0.5-0.1-0.8-0.2c-0.2,0-0.9-0.3-0.4-0.1
		c-0.3-0.1-0.6-0.3-0.9-0.5c-0.1-0.1-0.2-0.2-0.4-0.2c0.4,0.3-0.1-0.1-0.2-0.1c-0.3-0.2-0.5-0.5-0.7-0.8c-0.4-0.5,0.1,0.2-0.1-0.1
		c-0.1-0.1-0.2-0.3-0.3-0.4c-0.1-0.1-0.1-0.2-0.2-0.4c0,0-0.3-0.6-0.1-0.3c0.1,0.3-0.1-0.3-0.1-0.3c0-0.1-0.1-0.3-0.1-0.4
		c0-0.2-0.1-0.4-0.1-0.5c0-0.2,0-0.1,0,0.1c0-0.1,0-0.2,0-0.3c0-0.3,0-0.7,0-1c0,0,0.1-0.7,0-0.3c-0.1,0.4,0.1-0.3,0.1-0.3
		c0.1-0.3,0.2-0.6,0.3-0.9c0.1-0.4-0.3,0.5,0-0.1c0.1-0.2,0.2-0.4,0.3-0.6c0.1-0.1,0.2-0.2,0.2-0.4c0.3-0.6-0.3,0.3,0.1-0.2
		c0.2-0.2,0.4-0.4,0.6-0.6c0.1-0.1,0.3-0.3,0.5-0.4c-0.1,0.1-0.4,0.2,0,0c0.3-0.2,0.7-0.4,1-0.6c0.4-0.2-0.5,0.2,0.1,0
		c0.1,0,0.3-0.1,0.4-0.1c0.2,0,0.3-0.1,0.5-0.1c0.1,0,0.6-0.1,0.1,0c0.3,0,0.7,0,1,0c0.2,0,0.4,0,0.6,0c0.5,0-0.3-0.1,0.2,0
		c0.4,0.1,0.7,0.2,1.1,0.3c0.6,0.2-0.4-0.2,0.2,0.1c0.2,0.1,0.4,0.2,0.6,0.3c0.1,0.1,0.2,0.2,0.4,0.2c0.5,0.3-0.2-0.2,0.2,0.1
		c0.3,0.3,0.6,0.6,0.9,0.9c0.1,0.1,0.3,0.4,0,0c0.1,0.2,0.2,0.3,0.3,0.5c0.1,0.1,0.2,0.3,0.3,0.5c0,0.1,0.1,0.2,0.1,0.3
		c-0.1-0.2-0.1-0.2,0-0.1c0.1,0.4,0.2,0.8,0.3,1.2c0.1,0.5,0,0.1,0,0C186.7,123.7,186.7,124,186.7,124.3c0,1.3,1.1,2.5,2.5,2.5
		c1.3-0.1,2.5-1.1,2.5-2.5c-0.1-4.4-2.8-8.2-7-9.7c-3.9-1.4-8.5-0.1-11.1,3.1c-2.7,3.3-3.2,8.1-1,11.9c2.2,3.7,6.6,5.6,10.9,4.8
		c4.8-0.9,8.2-5.3,8.3-10.1c0-1.3-1.2-2.5-2.5-2.5C187.8,121.9,186.7,123,186.7,124.3z"/>
<path class="st0" d="M72.7,102.9c0-0.2,0-0.5,0-0.7c0-0.3,0-0.3,0,0c0-0.1,0-0.2,0.1-0.3c0-0.2,0.1-0.4,0.2-0.6
		c0-0.1,0.3-0.8,0.1-0.3c0.2-0.4,0.4-0.8,0.6-1.1c0.3-0.5-0.3,0.3,0.1-0.2c0.1-0.2,0.3-0.3,0.4-0.5c0.1-0.1,0.3-0.3,0.5-0.4
		c0.4-0.4-0.2,0.1,0.2-0.1c0.2-0.1,0.4-0.2,0.5-0.3c0.1,0,0.7-0.4,0.5-0.2s0.3-0.1,0.4-0.1c0.2-0.1,0.5-0.1,0.7-0.2
		c0.5-0.1-0.3,0,0.2,0c0.2,0,0.5,0,0.7,0c0.2,0,0.5,0,0.7,0c0.7,0-0.4-0.1,0.2,0c0.4,0.1,0.8,0.2,1.3,0.4c-0.5-0.2,0.2,0.1,0.3,0.2
		c0.2,0.1,0.4,0.2,0.6,0.3c0.1,0.1,0.2,0.1,0.3,0.2c-0.2-0.1-0.2-0.2-0.1-0.1c0.2,0.2,0.4,0.3,0.6,0.5c0.1,0.1,0.3,0.3,0.4,0.5
		c0.3,0.4-0.1-0.3,0.1,0.2c0.2,0.4,0.4,0.7,0.6,1.1c-0.2-0.5,0,0.1,0.1,0.2c0.1,0.2,0.1,0.4,0.2,0.6c0,0.1,0.1,0.3,0.1,0.4
		c0-0.2,0-0.3,0-0.1c0,0.3,0,0.5,0,0.8c0,1.3,1.1,2.5,2.5,2.5c1.3-0.1,2.5-1.1,2.5-2.5c-0.1-5.6-4.6-10.3-10.3-10.3
		c-5.6,0-10.2,4.7-10.3,10.3c0,1.3,1.2,2.5,2.5,2.5C71.6,105.3,72.6,104.3,72.7,102.9L72.7,102.9z"/>
<path class="st0" d="M114.1,102.9c0-0.2,0-0.5,0-0.7c0-0.3,0-0.3,0,0c0-0.1,0-0.2,0.1-0.3c0-0.2,0.1-0.4,0.2-0.6
		c0-0.1,0.3-0.8,0.1-0.3c0.2-0.4,0.4-0.8,0.6-1.1c0.3-0.5-0.3,0.3,0.1-0.2c0.1-0.2,0.3-0.3,0.4-0.5c0.1-0.1,0.3-0.3,0.5-0.4
		c0.4-0.4-0.2,0.1,0.2-0.1c0.2-0.1,0.4-0.2,0.5-0.3c0.1,0,0.7-0.4,0.5-0.2s0.3-0.1,0.4-0.1c0.2-0.1,0.5-0.1,0.7-0.2
		c0.5-0.1-0.3,0,0.2,0c0.2,0,0.5,0,0.7,0c0.2,0,0.5,0,0.7,0c0.7,0-0.4-0.1,0.2,0c0.4,0.1,0.8,0.2,1.3,0.4c-0.5-0.2,0.2,0.1,0.3,0.2
		c0.2,0.1,0.4,0.2,0.6,0.3c0.1,0.1,0.2,0.1,0.3,0.2c-0.2-0.1-0.2-0.2-0.1-0.1c0.2,0.2,0.4,0.3,0.6,0.5c0.1,0.1,0.3,0.3,0.4,0.5
		c0.3,0.4-0.1-0.3,0.1,0.2c0.2,0.4,0.4,0.7,0.6,1.1c-0.2-0.5,0,0.1,0.1,0.2c0.1,0.2,0.1,0.4,0.2,0.6c0,0.1,0.1,0.3,0.1,0.4
		c0-0.2,0-0.3,0-0.1c0,0.3,0,0.5,0,0.8c0,1.3,1.1,2.5,2.5,2.5c1.3-0.1,2.5-1.1,2.5-2.5c-0.1-5.6-4.6-10.3-10.3-10.3
		c-5.6,0-10.2,4.7-10.3,10.3c0,1.3,1.2,2.5,2.5,2.5C113,105.3,114.1,104.3,114.1,102.9L114.1,102.9z"/>
<path class="st0" d="M155.5,102.9c0-0.2,0-0.5,0-0.7c0-0.3,0-0.3,0,0c0-0.1,0-0.2,0.1-0.3c0-0.2,0.1-0.4,0.2-0.6
		c0-0.1,0.3-0.8,0.1-0.3c0.2-0.4,0.4-0.8,0.6-1.1c0.3-0.5-0.3,0.3,0.1-0.2c0.1-0.2,0.3-0.3,0.4-0.5c0.1-0.1,0.3-0.3,0.5-0.4
		c0.4-0.4-0.2,0.1,0.2-0.1c0.2-0.1,0.4-0.2,0.5-0.3c0.1,0,0.7-0.4,0.5-0.2c-0.3,0.1,0.3-0.1,0.4-0.1c0.2-0.1,0.5-0.1,0.7-0.2
		c0.5-0.1-0.3,0,0.2,0c0.2,0,0.5,0,0.7,0s0.5,0,0.7,0c0.7,0-0.4-0.1,0.2,0c0.4,0.1,0.8,0.2,1.3,0.4c-0.5-0.2,0.2,0.1,0.3,0.2
		c0.2,0.1,0.4,0.2,0.6,0.3c0.1,0.1,0.2,0.1,0.3,0.2c-0.2-0.1-0.2-0.2-0.1-0.1c0.2,0.2,0.4,0.3,0.6,0.5c0.1,0.1,0.3,0.3,0.4,0.5
		c0.3,0.4-0.1-0.3,0.1,0.2c0.2,0.4,0.4,0.7,0.6,1.1c-0.2-0.5,0,0.1,0.1,0.2c0.1,0.2,0.1,0.4,0.2,0.6c0,0.1,0.1,0.3,0.1,0.4
		c0-0.2,0-0.3,0-0.1c0,0.3,0,0.5,0,0.8c0,1.3,1.1,2.5,2.5,2.5c1.3-0.1,2.5-1.1,2.5-2.5c-0.1-5.6-4.6-10.3-10.3-10.3
		c-5.6,0-10.2,4.7-10.3,10.3c0,1.3,1.2,2.5,2.5,2.5C154.4,105.3,155.5,104.3,155.5,102.9L155.5,102.9z"/>
<path class="st0" d="M93.4,82c0-0.2,0-0.5,0-0.7c0-0.3,0-0.3,0,0c0-0.1,0-0.2,0.1-0.3c0-0.2,0.1-0.4,0.2-0.6c0-0.1,0.3-0.8,0.1-0.3
		c0.2-0.4,0.4-0.8,0.6-1.1c0.3-0.5-0.3,0.3,0.1-0.2c0.1-0.2,0.3-0.3,0.4-0.5c0.1-0.1,0.3-0.3,0.5-0.4c0.4-0.4-0.2,0.1,0.2-0.1
		c0.2-0.1,0.4-0.2,0.5-0.3c0.1,0,0.7-0.4,0.5-0.2C96.4,77.2,97,77,97,77c0.2-0.1,0.5-0.1,0.7-0.2c0.5-0.1-0.3,0,0.2,0
		c0.2,0,0.5,0,0.7,0c0.2,0,0.5,0,0.7,0c0.7,0-0.4-0.1,0.2,0c0.4,0.1,0.8,0.2,1.3,0.4c-0.5-0.2,0.2,0.1,0.3,0.2
		c0.2,0.1,0.4,0.2,0.6,0.3c0.1,0.1,0.2,0.1,0.3,0.2c-0.2-0.1-0.2-0.2-0.1-0.1c0.2,0.2,0.4,0.3,0.6,0.5c0.1,0.1,0.3,0.3,0.4,0.5
		c0.3,0.4-0.1-0.3,0.1,0.2c0.2,0.4,0.4,0.7,0.6,1.1c-0.2-0.5,0,0.1,0.1,0.2c0.1,0.2,0.1,0.4,0.2,0.6c0,0.1,0.1,0.3,0.1,0.4
		c0-0.2,0-0.3,0-0.1c0,0.3,0,0.5,0,0.8c0,1.3,1.1,2.5,2.5,2.5c1.3-0.1,2.5-1.1,2.5-2.5c-0.1-5.6-4.6-10.3-10.3-10.3
		c-5.6,0-10.2,4.7-10.3,10.3c0,1.3,1.2,2.5,2.5,2.5C92.3,84.4,93.4,83.4,93.4,82L93.4,82z"/>
<path class="st0" d="M134.8,82c0-0.2,0-0.5,0-0.7c0-0.3,0-0.3,0,0c0-0.1,0-0.2,0.1-0.3c0-0.2,0.1-0.4,0.2-0.6
		c0-0.1,0.3-0.8,0.1-0.3c0.2-0.4,0.4-0.8,0.6-1.1c0.3-0.5-0.3,0.3,0.1-0.2c0.1-0.2,0.3-0.3,0.4-0.5c0.1-0.1,0.3-0.3,0.5-0.4
		c0.4-0.4-0.2,0.1,0.2-0.1c0.2-0.1,0.4-0.2,0.5-0.3c0.1,0,0.7-0.4,0.5-0.2c-0.3,0.1,0.3-0.1,0.4-0.1c0.2-0.1,0.5-0.1,0.7-0.2
		c0.5-0.1-0.3,0,0.2,0c0.2,0,0.5,0,0.7,0s0.5,0,0.7,0c0.7,0-0.4-0.1,0.2,0c0.4,0.1,0.8,0.2,1.3,0.4c-0.5-0.2,0.2,0.1,0.3,0.2
		c0.2,0.1,0.4,0.2,0.6,0.3c0.1,0.1,0.2,0.1,0.3,0.2c-0.2-0.1-0.2-0.2-0.1-0.1c0.2,0.2,0.4,0.3,0.6,0.5c0.1,0.1,0.3,0.3,0.4,0.5
		c0.3,0.4-0.1-0.3,0.1,0.2c0.2,0.4,0.4,0.7,0.6,1.1c-0.2-0.5,0,0.1,0.1,0.2c0.1,0.2,0.1,0.4,0.2,0.6c0,0.1,0.1,0.3,0.1,0.4
		c0-0.2,0-0.3,0-0.1c0,0.3,0,0.5,0,0.8c0,1.3,1.1,2.5,2.5,2.5c1.3-0.1,2.5-1.1,2.5-2.5c-0.1-5.6-4.6-10.3-10.3-10.3
		c-5.6,0-10.2,4.7-10.3,10.3c0,1.3,1.2,2.5,2.5,2.5C133.7,84.4,134.8,83.4,134.8,82L134.8,82z"/>
<path class="st0" d="M114.1,62.3c0-0.2,0-0.5,0-0.7c0-0.3,0-0.3,0,0c0-0.1,0-0.2,0.1-0.3c0-0.2,0.1-0.4,0.2-0.6
		c0-0.1,0.3-0.8,0.1-0.3c0.2-0.4,0.4-0.8,0.6-1.1c0.3-0.5-0.3,0.3,0.1-0.2c0.1-0.2,0.3-0.3,0.4-0.5c0.1-0.1,0.3-0.3,0.5-0.4
		c0.4-0.4-0.2,0.1,0.2-0.1c0.2-0.1,0.4-0.2,0.5-0.3c0.1,0,0.7-0.4,0.5-0.2c-0.3,0.1,0.3-0.1,0.4-0.1c0.2-0.1,0.5-0.1,0.7-0.2
		c0.5-0.1-0.3,0,0.2,0c0.2,0,0.5,0,0.7,0c0.2,0,0.5,0,0.7,0c0.7,0-0.4-0.1,0.2,0c0.4,0.1,0.8,0.2,1.3,0.4c-0.5-0.2,0.2,0.1,0.3,0.2
		c0.2,0.1,0.4,0.2,0.6,0.3c0.1,0.1,0.2,0.1,0.3,0.2c-0.2-0.1-0.2-0.2-0.1-0.1c0.2,0.2,0.4,0.3,0.6,0.5c0.1,0.1,0.3,0.3,0.4,0.5
		c0.3,0.4-0.1-0.3,0.1,0.2c0.2,0.4,0.4,0.7,0.6,1.1c-0.2-0.5,0,0.1,0.1,0.2c0.1,0.2,0.1,0.4,0.2,0.6c0,0.1,0.1,0.3,0.1,0.4
		c0-0.2,0-0.3,0-0.1c0,0.3,0,0.5,0,0.8c0,1.3,1.1,2.5,2.5,2.5c1.3-0.1,2.5-1.1,2.5-2.5c-0.1-5.6-4.6-10.3-10.3-10.3
		c-5.6,0-10.2,4.7-10.3,10.3c0,1.3,1.2,2.5,2.5,2.5C113,64.7,114.1,63.7,114.1,62.3L114.1,62.3z"/>
</g>
</svg>
